%TF.GenerationSoftware,KiCad,Pcbnew,10.0.6-1.fc44*%
%TF.CreationDate,2026-09-15T16:49:13+07:00*%
%TF.ProjectId,inSomnia,696e536f-6d6e-4696-912e-6b696361645f,rev?*%
%TF.SameCoordinates,Original*%
%TF.FileFunction,Other,Comment*%
%FSLAX46Y46*%
G04 Gerber Fmt 4.6, Leading zero omitted, Abs format (unit mm)*
G04 Created by KiCad (PCBNEW 10.0.6-1.fc44) date 2026-09-15 16:49:13*
%MOMM*%
%LPD*%
G01*
G04 APERTURE LIST*
%ADD10C,0.150000*%
G04 APERTURE END LIST*
D10*
X23188095Y-3729104D02*
X23664285Y-3729104D01*
X23092857Y-4014819D02*
X23426190Y-3014819D01*
X23426190Y-3014819D02*
X23759523Y-4014819D01*
X24092857Y-3348152D02*
X24092857Y-4014819D01*
X24092857Y-3443390D02*
X24140476Y-3395771D01*
X24140476Y-3395771D02*
X24235714Y-3348152D01*
X24235714Y-3348152D02*
X24378571Y-3348152D01*
X24378571Y-3348152D02*
X24473809Y-3395771D01*
X24473809Y-3395771D02*
X24521428Y-3491009D01*
X24521428Y-3491009D02*
X24521428Y-4014819D01*
X24854762Y-3348152D02*
X25235714Y-3348152D01*
X24997619Y-3014819D02*
X24997619Y-3871961D01*
X24997619Y-3871961D02*
X25045238Y-3967200D01*
X25045238Y-3967200D02*
X25140476Y-4014819D01*
X25140476Y-4014819D02*
X25235714Y-4014819D01*
X25950000Y-3967200D02*
X25854762Y-4014819D01*
X25854762Y-4014819D02*
X25664286Y-4014819D01*
X25664286Y-4014819D02*
X25569048Y-3967200D01*
X25569048Y-3967200D02*
X25521429Y-3871961D01*
X25521429Y-3871961D02*
X25521429Y-3491009D01*
X25521429Y-3491009D02*
X25569048Y-3395771D01*
X25569048Y-3395771D02*
X25664286Y-3348152D01*
X25664286Y-3348152D02*
X25854762Y-3348152D01*
X25854762Y-3348152D02*
X25950000Y-3395771D01*
X25950000Y-3395771D02*
X25997619Y-3491009D01*
X25997619Y-3491009D02*
X25997619Y-3586247D01*
X25997619Y-3586247D02*
X25521429Y-3681485D01*
X26426191Y-3348152D02*
X26426191Y-4014819D01*
X26426191Y-3443390D02*
X26473810Y-3395771D01*
X26473810Y-3395771D02*
X26569048Y-3348152D01*
X26569048Y-3348152D02*
X26711905Y-3348152D01*
X26711905Y-3348152D02*
X26807143Y-3395771D01*
X26807143Y-3395771D02*
X26854762Y-3491009D01*
X26854762Y-3491009D02*
X26854762Y-4014819D01*
X27330953Y-3348152D02*
X27330953Y-4014819D01*
X27330953Y-3443390D02*
X27378572Y-3395771D01*
X27378572Y-3395771D02*
X27473810Y-3348152D01*
X27473810Y-3348152D02*
X27616667Y-3348152D01*
X27616667Y-3348152D02*
X27711905Y-3395771D01*
X27711905Y-3395771D02*
X27759524Y-3491009D01*
X27759524Y-3491009D02*
X27759524Y-4014819D01*
X28664286Y-4014819D02*
X28664286Y-3491009D01*
X28664286Y-3491009D02*
X28616667Y-3395771D01*
X28616667Y-3395771D02*
X28521429Y-3348152D01*
X28521429Y-3348152D02*
X28330953Y-3348152D01*
X28330953Y-3348152D02*
X28235715Y-3395771D01*
X28664286Y-3967200D02*
X28569048Y-4014819D01*
X28569048Y-4014819D02*
X28330953Y-4014819D01*
X28330953Y-4014819D02*
X28235715Y-3967200D01*
X28235715Y-3967200D02*
X28188096Y-3871961D01*
X28188096Y-3871961D02*
X28188096Y-3776723D01*
X28188096Y-3776723D02*
X28235715Y-3681485D01*
X28235715Y-3681485D02*
X28330953Y-3633866D01*
X28330953Y-3633866D02*
X28569048Y-3633866D01*
X28569048Y-3633866D02*
X28664286Y-3586247D01*
X13857142Y5002561D02*
X13857142Y7002561D01*
X14999999Y5002561D02*
X14142856Y6145419D01*
X14999999Y7002561D02*
X13857142Y5859704D01*
X15857142Y6050180D02*
X16523809Y6050180D01*
X16809523Y5002561D02*
X15857142Y5002561D01*
X15857142Y5002561D02*
X15857142Y7002561D01*
X15857142Y7002561D02*
X16809523Y7002561D01*
X17666666Y6050180D02*
X18333333Y6050180D01*
X18619047Y5002561D02*
X17666666Y5002561D01*
X17666666Y5002561D02*
X17666666Y7002561D01*
X17666666Y7002561D02*
X18619047Y7002561D01*
X19476190Y5002561D02*
X19476190Y7002561D01*
X19476190Y7002561D02*
X20238095Y7002561D01*
X20238095Y7002561D02*
X20428571Y6907323D01*
X20428571Y6907323D02*
X20523809Y6812085D01*
X20523809Y6812085D02*
X20619047Y6621609D01*
X20619047Y6621609D02*
X20619047Y6335895D01*
X20619047Y6335895D02*
X20523809Y6145419D01*
X20523809Y6145419D02*
X20428571Y6050180D01*
X20428571Y6050180D02*
X20238095Y5954942D01*
X20238095Y5954942D02*
X19476190Y5954942D01*
X21476190Y5764466D02*
X23000000Y5764466D01*
X24333332Y7002561D02*
X24714285Y7002561D01*
X24714285Y7002561D02*
X24904761Y6907323D01*
X24904761Y6907323D02*
X25095237Y6716847D01*
X25095237Y6716847D02*
X25190475Y6335895D01*
X25190475Y6335895D02*
X25190475Y5669228D01*
X25190475Y5669228D02*
X25095237Y5288276D01*
X25095237Y5288276D02*
X24904761Y5097800D01*
X24904761Y5097800D02*
X24714285Y5002561D01*
X24714285Y5002561D02*
X24333332Y5002561D01*
X24333332Y5002561D02*
X24142856Y5097800D01*
X24142856Y5097800D02*
X23952380Y5288276D01*
X23952380Y5288276D02*
X23857142Y5669228D01*
X23857142Y5669228D02*
X23857142Y6335895D01*
X23857142Y6335895D02*
X23952380Y6716847D01*
X23952380Y6716847D02*
X24142856Y6907323D01*
X24142856Y6907323D02*
X24333332Y7002561D01*
X26047618Y7002561D02*
X26047618Y5383514D01*
X26047618Y5383514D02*
X26142856Y5193038D01*
X26142856Y5193038D02*
X26238094Y5097800D01*
X26238094Y5097800D02*
X26428570Y5002561D01*
X26428570Y5002561D02*
X26809523Y5002561D01*
X26809523Y5002561D02*
X26999999Y5097800D01*
X26999999Y5097800D02*
X27095237Y5193038D01*
X27095237Y5193038D02*
X27190475Y5383514D01*
X27190475Y5383514D02*
X27190475Y7002561D01*
X27857142Y7002561D02*
X28999999Y7002561D01*
X28428570Y5002561D02*
X28428570Y7002561D01*
X31000000Y7002561D02*
X32333333Y7002561D01*
X32333333Y7002561D02*
X31000000Y5002561D01*
X31000000Y5002561D02*
X32333333Y5002561D01*
X33476190Y7002561D02*
X33857143Y7002561D01*
X33857143Y7002561D02*
X34047619Y6907323D01*
X34047619Y6907323D02*
X34238095Y6716847D01*
X34238095Y6716847D02*
X34333333Y6335895D01*
X34333333Y6335895D02*
X34333333Y5669228D01*
X34333333Y5669228D02*
X34238095Y5288276D01*
X34238095Y5288276D02*
X34047619Y5097800D01*
X34047619Y5097800D02*
X33857143Y5002561D01*
X33857143Y5002561D02*
X33476190Y5002561D01*
X33476190Y5002561D02*
X33285714Y5097800D01*
X33285714Y5097800D02*
X33095238Y5288276D01*
X33095238Y5288276D02*
X33000000Y5669228D01*
X33000000Y5669228D02*
X33000000Y6335895D01*
X33000000Y6335895D02*
X33095238Y6716847D01*
X33095238Y6716847D02*
X33285714Y6907323D01*
X33285714Y6907323D02*
X33476190Y7002561D01*
X35190476Y5002561D02*
X35190476Y7002561D01*
X35190476Y7002561D02*
X36333333Y5002561D01*
X36333333Y5002561D02*
X36333333Y7002561D01*
X37285714Y6050180D02*
X37952381Y6050180D01*
X38238095Y5002561D02*
X37285714Y5002561D01*
X37285714Y5002561D02*
X37285714Y7002561D01*
X37285714Y7002561D02*
X38238095Y7002561D01*
M02*
