%TF.GenerationSoftware,KiCad,Pcbnew,10.0.6-1.fc44*%
%TF.CreationDate,2026-09-15T16:49:13+07:00*%
%TF.ProjectId,inSomnia,696e536f-6d6e-4696-912e-6b696361645f,rev?*%
%TF.SameCoordinates,Original*%
%TF.FileFunction,Legend,Bot*%
%TF.FilePolarity,Positive*%
%FSLAX46Y46*%
G04 Gerber Fmt 4.6, Leading zero omitted, Abs format (unit mm)*
G04 Created by KiCad (PCBNEW 10.0.6-1.fc44) date 2026-09-15 16:49:13*
%MOMM*%
%LPD*%
G01*
G04 APERTURE LIST*
%ADD10C,2.000000*%
%ADD11R,1.700000X1.700000*%
%ADD12C,1.700000*%
%ADD13R,2.000000X2.000000*%
G04 APERTURE END LIST*
%LPC*%
D10*
%TO.C,SW12*%
X65000000Y-58000000D03*
X71500000Y-58000000D03*
X65000000Y-62500000D03*
X71500000Y-62500000D03*
%TD*%
%TO.C,SW11*%
X54000000Y-58000000D03*
X60500000Y-58000000D03*
X54000000Y-62500000D03*
X60500000Y-62500000D03*
%TD*%
%TO.C,SW8*%
X65000000Y-46000000D03*
X71500000Y-46000000D03*
X65000000Y-50500000D03*
X71500000Y-50500000D03*
%TD*%
%TO.C,SW13*%
X76000000Y-58000000D03*
X82500000Y-58000000D03*
X76000000Y-62500000D03*
X82500000Y-62500000D03*
%TD*%
%TO.C,SW3*%
X54000000Y-34000000D03*
X60500000Y-34000000D03*
X54000000Y-38500000D03*
X60500000Y-38500000D03*
%TD*%
D11*
%TO.C,J4*%
X60000000Y-6000000D03*
D12*
X60000000Y-8540000D03*
X60000000Y-11080000D03*
X60000000Y-13620000D03*
X60000000Y-16160000D03*
X60000000Y-18700000D03*
%TD*%
D10*
%TO.C,SW7*%
X54000000Y-46000000D03*
X60500000Y-46000000D03*
X54000000Y-50500000D03*
X60500000Y-50500000D03*
%TD*%
D11*
%TO.C,J1*%
X4000000Y-70000000D03*
D12*
X4000000Y-72540000D03*
%TD*%
D10*
%TO.C,SW14*%
X87000000Y-58000000D03*
X93500000Y-58000000D03*
X87000000Y-62500000D03*
X93500000Y-62500000D03*
%TD*%
D13*
%TO.C,BZ1*%
X42000000Y-72000000D03*
D10*
X47000000Y-72000000D03*
%TD*%
D11*
%TO.C,J7*%
X78000000Y-6000000D03*
D12*
X78000000Y-8540000D03*
X78000000Y-11080000D03*
X78000000Y-13620000D03*
%TD*%
D10*
%TO.C,SW9*%
X76000000Y-46000000D03*
X82500000Y-46000000D03*
X76000000Y-50500000D03*
X82500000Y-50500000D03*
%TD*%
%TO.C,SW4*%
X65000000Y-34000000D03*
X71500000Y-34000000D03*
X65000000Y-38500000D03*
X71500000Y-38500000D03*
%TD*%
%TO.C,SW10*%
X87000000Y-46000000D03*
X93500000Y-46000000D03*
X87000000Y-50500000D03*
X93500000Y-50500000D03*
%TD*%
%TO.C,SW5*%
X76000000Y-34000000D03*
X82500000Y-34000000D03*
X76000000Y-38500000D03*
X82500000Y-38500000D03*
%TD*%
%TO.C,SW1*%
X43000000Y-30000000D03*
X49500000Y-30000000D03*
X43000000Y-34500000D03*
X49500000Y-34500000D03*
%TD*%
%TO.C,SW2*%
X43000000Y-42000000D03*
X49500000Y-42000000D03*
X43000000Y-46500000D03*
X49500000Y-46500000D03*
%TD*%
D11*
%TO.C,J3*%
X54000000Y-6000000D03*
D12*
X54000000Y-8540000D03*
X54000000Y-11080000D03*
X54000000Y-13620000D03*
X54000000Y-16160000D03*
X54000000Y-18700000D03*
X54000000Y-21240000D03*
X54000000Y-23780000D03*
%TD*%
D11*
%TO.C,J2*%
X4000000Y-50000000D03*
D12*
X4000000Y-52540000D03*
X4000000Y-55080000D03*
X4000000Y-57620000D03*
X4000000Y-60160000D03*
X4000000Y-62700000D03*
%TD*%
D11*
%TO.C,J5*%
X66000000Y-6000000D03*
D12*
X66000000Y-8540000D03*
X66000000Y-11080000D03*
X66000000Y-13620000D03*
X66000000Y-16160000D03*
%TD*%
D10*
%TO.C,SW6*%
X87000000Y-34000000D03*
X93500000Y-34000000D03*
X87000000Y-38500000D03*
X93500000Y-38500000D03*
%TD*%
D11*
%TO.C,J6*%
X72000000Y-6000000D03*
D12*
X72000000Y-8540000D03*
X72000000Y-11080000D03*
%TD*%
%LPD*%
M02*
