M48
; DRILL file KiCad 10.0.6-1.fc44 date 2026-09-15T16:49:14
; FORMAT={-:-/ absolute / metric / decimal}
; #@! TF.CreationDate,2026-09-15T16:49:14+07:00
; #@! TF.GenerationSoftware,Kicad,Pcbnew,10.0.6-1.fc44
; #@! TF.FileFunction,MixedPlating,1,2
FMAT,2
METRIC
; #@! TA.AperFunction,Plated,PTH,ComponentDrill
T1C0.200
; #@! TA.AperFunction,Plated,PTH,ViaDrill
T2C0.300
; #@! TA.AperFunction,Plated,PTH,ComponentDrill
T3C1.000
; #@! TA.AperFunction,Plated,PTH,ComponentDrill
T4C1.100
%
G90
G05
T1
X23.1Y-14.76
X23.1Y-16.16
X23.8Y-14.06
X23.8Y-15.46
X23.8Y-16.86
X24.5Y-14.76
X24.5Y-16.16
X25.2Y-14.06
X25.2Y-15.46
X25.2Y-16.86
X25.9Y-14.76
X25.9Y-16.16
T2
X1.378Y-37.029
X3.374Y-34.059
X4.0Y-10.0
X4.0Y-16.0
X4.0Y-76.0
X9.408Y-57.877
X9.408Y-66.099
X9.911Y-42.026
X10.0Y-10.0
X10.0Y-76.0
X11.126Y-54.086
X12.066Y-52.763
X12.393Y-54.054
X12.544Y-49.314
X12.579Y-38.588
X12.783Y-45.401
X15.568Y-16.101
X15.568Y-22.177
X15.981Y-11.473
X16.0Y-28.0
X16.0Y-64.0
X16.0Y-76.0
X16.516Y-35.953
X16.781Y-42.82
X16.956Y-52.057
X18.874Y-22.407
X18.874Y-23.3
X18.967Y-30.122
X19.102Y-10.458
X20.358Y-45.372
X21.452Y-24.206
X21.521Y-45.384
X21.552Y-38.307
X21.759Y-34.8
X21.792Y-27.907
X22.0Y-10.0
X22.0Y-76.0
X22.815Y-21.37
X23.23Y-64.044
X24.371Y-21.882
X24.95Y-69.957
X24.95Y-36.422
X24.95Y-42.372
X24.96Y-52.043
X25.302Y-30.451
X25.925Y-45.0
X25.925Y-56.928
X27.114Y-21.965
X27.5Y-37.628
X27.71Y-52.036
X27.862Y-44.125
X28.0Y-10.0
X28.0Y-28.0
X28.0Y-70.0
X28.0Y-76.0
X29.011Y-16.688
X29.223Y-15.525
X30.311Y-33.957
X30.845Y-60.303
X31.595Y-54.059
X33.245Y-31.805
X33.631Y-45.645
X34.0Y-28.0
X34.0Y-52.0
X34.0Y-58.0
X34.0Y-64.0
X34.0Y-70.0
X34.0Y-76.0
X34.35Y-25.814
X34.907Y-47.529
X35.771Y-25.513
X36.34Y-54.852
X36.739Y-25.804
X40.0Y-16.0
X40.0Y-28.0
X40.0Y-34.0
X40.0Y-52.0
X40.0Y-58.0
X40.0Y-64.0
X40.0Y-70.0
X40.0Y-76.0
X46.0Y-16.0
X46.0Y-28.0
X46.0Y-52.0
X46.0Y-64.0
X46.0Y-76.0
X51.344Y-73.278
X51.474Y-21.903
X52.0Y-28.0
X52.0Y-34.0
X52.0Y-52.0
X52.0Y-64.0
X55.228Y-61.171
X55.372Y-24.371
X56.229Y-15.245
X57.398Y-69.517
X57.431Y-6.447
X58.0Y-4.0
X58.0Y-16.0
X58.0Y-28.0
X58.0Y-52.0
X58.0Y-64.0
X58.0Y-76.0
X62.119Y-16.168
X64.0Y-4.0
X64.0Y-16.0
X64.0Y-28.0
X64.0Y-76.0
X70.0Y-4.0
X70.0Y-16.0
X70.0Y-28.0
X70.0Y-70.0
X70.0Y-76.0
X70.141Y-40.835
X76.0Y-4.0
X76.0Y-16.0
X76.0Y-22.0
X76.0Y-28.0
X76.0Y-70.0
X76.0Y-76.0
X79.517Y-8.0
X82.0Y-4.0
X82.0Y-16.0
X82.0Y-22.0
X82.0Y-28.0
X82.0Y-70.0
X82.0Y-76.0
X88.0Y-4.0
X88.0Y-16.0
X88.0Y-22.0
X88.0Y-28.0
X88.0Y-70.0
X88.0Y-76.0
X89.301Y-9.812
X94.0Y-4.0
X94.0Y-10.0
X94.0Y-16.0
X94.0Y-22.0
X94.0Y-28.0
X94.0Y-70.0
X94.0Y-76.0
T3
X4.0Y-50.0
X4.0Y-52.54
X4.0Y-55.08
X4.0Y-57.62
X4.0Y-60.16
X4.0Y-62.7
X4.0Y-70.0
X4.0Y-72.54
X42.0Y-72.0
X47.0Y-72.0
X54.0Y-6.0
X54.0Y-8.54
X54.0Y-11.08
X54.0Y-13.62
X54.0Y-16.16
X54.0Y-18.7
X54.0Y-21.24
X54.0Y-23.78
X60.0Y-6.0
X60.0Y-8.54
X60.0Y-11.08
X60.0Y-13.62
X60.0Y-16.16
X60.0Y-18.7
X66.0Y-6.0
X66.0Y-8.54
X66.0Y-11.08
X66.0Y-13.62
X66.0Y-16.16
X72.0Y-6.0
X72.0Y-8.54
X72.0Y-11.08
X78.0Y-6.0
X78.0Y-8.54
X78.0Y-11.08
X78.0Y-13.62
T4
X43.0Y-30.0
X43.0Y-34.5
X43.0Y-42.0
X43.0Y-46.5
X49.5Y-30.0
X49.5Y-34.5
X49.5Y-42.0
X49.5Y-46.5
X54.0Y-34.0
X54.0Y-38.5
X54.0Y-46.0
X54.0Y-50.5
X54.0Y-58.0
X54.0Y-62.5
X60.5Y-34.0
X60.5Y-38.5
X60.5Y-46.0
X60.5Y-50.5
X60.5Y-58.0
X60.5Y-62.5
X65.0Y-34.0
X65.0Y-38.5
X65.0Y-46.0
X65.0Y-50.5
X65.0Y-58.0
X65.0Y-62.5
X71.5Y-34.0
X71.5Y-38.5
X71.5Y-46.0
X71.5Y-50.5
X71.5Y-58.0
X71.5Y-62.5
X76.0Y-34.0
X76.0Y-38.5
X76.0Y-46.0
X76.0Y-50.5
X76.0Y-58.0
X76.0Y-62.5
X82.5Y-34.0
X82.5Y-38.5
X82.5Y-46.0
X82.5Y-50.5
X82.5Y-58.0
X82.5Y-62.5
X87.0Y-34.0
X87.0Y-38.5
X87.0Y-46.0
X87.0Y-50.5
X87.0Y-58.0
X87.0Y-62.5
X93.5Y-34.0
X93.5Y-38.5
X93.5Y-46.0
X93.5Y-50.5
X93.5Y-58.0
X93.5Y-62.5
M30
