%TF.GenerationSoftware,KiCad,Pcbnew,10.0.6-1.fc44*%
%TF.CreationDate,2026-09-15T16:49:13+07:00*%
%TF.ProjectId,inSomnia,696e536f-6d6e-4696-912e-6b696361645f,rev?*%
%TF.SameCoordinates,Original*%
%TF.FileFunction,Soldermask,Top*%
%TF.FilePolarity,Negative*%
%FSLAX46Y46*%
G04 Gerber Fmt 4.6, Leading zero omitted, Abs format (unit mm)*
G04 Created by KiCad (PCBNEW 10.0.6-1.fc44) date 2026-09-15 16:49:13*
%MOMM*%
%LPD*%
G01*
G04 APERTURE LIST*
G04 Aperture macros list*
%AMRoundRect*
0 Rectangle with rounded corners*
0 $1 Rounding radius*
0 $2 $3 $4 $5 $6 $7 $8 $9 X,Y pos of 4 corners*
0 Add a 4 corners polygon primitive as box body*
4,1,4,$2,$3,$4,$5,$6,$7,$8,$9,$2,$3,0*
0 Add four circle primitives for the rounded corners*
1,1,$1+$1,$2,$3*
1,1,$1+$1,$4,$5*
1,1,$1+$1,$6,$7*
1,1,$1+$1,$8,$9*
0 Add four rect primitives between the rounded corners*
20,1,$1+$1,$2,$3,$4,$5,0*
20,1,$1+$1,$4,$5,$6,$7,0*
20,1,$1+$1,$6,$7,$8,$9,0*
20,1,$1+$1,$8,$9,$2,$3,0*%
G04 Aperture macros list end*
%ADD10RoundRect,0.250000X-0.262500X-0.450000X0.262500X-0.450000X0.262500X0.450000X-0.262500X0.450000X0*%
%ADD11RoundRect,0.375000X-0.625000X-0.375000X0.625000X-0.375000X0.625000X0.375000X-0.625000X0.375000X0*%
%ADD12RoundRect,0.500000X-0.500000X-1.400000X0.500000X-1.400000X0.500000X1.400000X-0.500000X1.400000X0*%
%ADD13RoundRect,0.250000X-0.250000X-0.475000X0.250000X-0.475000X0.250000X0.475000X-0.250000X0.475000X0*%
%ADD14C,2.000000*%
%ADD15RoundRect,0.150000X-0.825000X-0.150000X0.825000X-0.150000X0.825000X0.150000X-0.825000X0.150000X0*%
%ADD16R,1.500000X0.900000*%
%ADD17R,0.900000X1.500000*%
%ADD18C,0.600000*%
%ADD19R,3.900000X3.900000*%
%ADD20RoundRect,0.225000X-0.225000X-0.375000X0.225000X-0.375000X0.225000X0.375000X-0.225000X0.375000X0*%
%ADD21R,1.700000X1.700000*%
%ADD22C,1.700000*%
%ADD23R,2.000000X2.000000*%
%ADD24RoundRect,0.250000X0.475000X-0.250000X0.475000X0.250000X-0.475000X0.250000X-0.475000X-0.250000X0*%
%ADD25RoundRect,0.150000X-0.587500X-0.150000X0.587500X-0.150000X0.587500X0.150000X-0.587500X0.150000X0*%
G04 APERTURE END LIST*
D10*
%TO.C,R8*%
X23087500Y-44000000D03*
X24912500Y-44000000D03*
%TD*%
%TO.C,R3*%
X87087500Y-8000000D03*
X88912500Y-8000000D03*
%TD*%
%TO.C,R17*%
X29087500Y-62000000D03*
X30912500Y-62000000D03*
%TD*%
%TO.C,R15*%
X29087500Y-50000000D03*
X30912500Y-50000000D03*
%TD*%
D11*
%TO.C,U4*%
X10850000Y-67700000D03*
X10850000Y-70000000D03*
D12*
X17150000Y-70000000D03*
D11*
X10850000Y-72300000D03*
%TD*%
D13*
%TO.C,C1*%
X23050000Y-68000000D03*
X24950000Y-68000000D03*
%TD*%
D14*
%TO.C,SW12*%
X65000000Y-58000000D03*
X71500000Y-58000000D03*
X65000000Y-62500000D03*
X71500000Y-62500000D03*
%TD*%
%TO.C,SW11*%
X54000000Y-58000000D03*
X60500000Y-58000000D03*
X54000000Y-62500000D03*
X60500000Y-62500000D03*
%TD*%
D10*
%TO.C,R2*%
X35087500Y-34000000D03*
X36912500Y-34000000D03*
%TD*%
%TO.C,R4*%
X87087500Y-13000000D03*
X88912500Y-13000000D03*
%TD*%
D14*
%TO.C,SW8*%
X65000000Y-46000000D03*
X71500000Y-46000000D03*
X65000000Y-50500000D03*
X71500000Y-50500000D03*
%TD*%
D10*
%TO.C,R7*%
X23087500Y-38000000D03*
X24912500Y-38000000D03*
%TD*%
D14*
%TO.C,SW13*%
X76000000Y-58000000D03*
X82500000Y-58000000D03*
X76000000Y-62500000D03*
X82500000Y-62500000D03*
%TD*%
D15*
%TO.C,U3*%
X9525000Y-31555000D03*
X9525000Y-32825000D03*
X9525000Y-34095000D03*
X9525000Y-35365000D03*
X9525000Y-36635000D03*
X9525000Y-37905000D03*
X9525000Y-39175000D03*
X9525000Y-40445000D03*
X14475000Y-40445000D03*
X14475000Y-39175000D03*
X14475000Y-37905000D03*
X14475000Y-36635000D03*
X14475000Y-35365000D03*
X14475000Y-34095000D03*
X14475000Y-32825000D03*
X14475000Y-31555000D03*
%TD*%
D13*
%TO.C,C6*%
X35050000Y-46000000D03*
X36950000Y-46000000D03*
%TD*%
D16*
%TO.C,U1*%
X17250000Y-7740000D03*
X17250000Y-9010000D03*
X17250000Y-10280000D03*
X17250000Y-11550000D03*
X17250000Y-12820000D03*
X17250000Y-14090000D03*
X17250000Y-15360000D03*
X17250000Y-16630000D03*
X17250000Y-17900000D03*
X17250000Y-19170000D03*
X17250000Y-20440000D03*
X17250000Y-21710000D03*
X17250000Y-22980000D03*
X17250000Y-24250000D03*
D17*
X19015000Y-25500000D03*
X20285000Y-25500000D03*
X21555000Y-25500000D03*
X22825000Y-25500000D03*
X24095000Y-25500000D03*
X25365000Y-25500000D03*
X26635000Y-25500000D03*
X27905000Y-25500000D03*
X29175000Y-25500000D03*
X30445000Y-25500000D03*
X31715000Y-25500000D03*
X32985000Y-25500000D03*
D16*
X34750000Y-24250000D03*
X34750000Y-22980000D03*
X34750000Y-21710000D03*
X34750000Y-20440000D03*
X34750000Y-19170000D03*
X34750000Y-17900000D03*
X34750000Y-16630000D03*
X34750000Y-15360000D03*
X34750000Y-14090000D03*
X34750000Y-12820000D03*
X34750000Y-11550000D03*
X34750000Y-10280000D03*
X34750000Y-9010000D03*
X34750000Y-7740000D03*
D18*
X23100000Y-14760000D03*
X23100000Y-16160000D03*
X23800000Y-14060000D03*
X23800000Y-15460000D03*
X23800000Y-16860000D03*
X24500000Y-14760000D03*
D19*
X24500000Y-15460000D03*
D18*
X24500000Y-16160000D03*
X25200000Y-14060000D03*
X25200000Y-15460000D03*
X25200000Y-16860000D03*
X25900000Y-14760000D03*
X25900000Y-16160000D03*
%TD*%
D15*
%TO.C,U2*%
X9525000Y-45555000D03*
X9525000Y-46825000D03*
X9525000Y-48095000D03*
X9525000Y-49365000D03*
X9525000Y-50635000D03*
X9525000Y-51905000D03*
X9525000Y-53175000D03*
X9525000Y-54445000D03*
X14475000Y-54445000D03*
X14475000Y-53175000D03*
X14475000Y-51905000D03*
X14475000Y-50635000D03*
X14475000Y-49365000D03*
X14475000Y-48095000D03*
X14475000Y-46825000D03*
X14475000Y-45555000D03*
%TD*%
D10*
%TO.C,R1*%
X35087500Y-30000000D03*
X36912500Y-30000000D03*
%TD*%
%TO.C,R12*%
X29087500Y-32000000D03*
X30912500Y-32000000D03*
%TD*%
D14*
%TO.C,SW3*%
X54000000Y-34000000D03*
X60500000Y-34000000D03*
X54000000Y-38500000D03*
X60500000Y-38500000D03*
%TD*%
D20*
%TO.C,D1*%
X60350000Y-70000000D03*
X63650000Y-70000000D03*
%TD*%
D13*
%TO.C,C3*%
X29050000Y-68000000D03*
X30950000Y-68000000D03*
%TD*%
D21*
%TO.C,J4*%
X60000000Y-6000000D03*
D22*
X60000000Y-8540000D03*
X60000000Y-11080000D03*
X60000000Y-13620000D03*
X60000000Y-16160000D03*
X60000000Y-18700000D03*
%TD*%
D10*
%TO.C,R9*%
X23087500Y-50000000D03*
X24912500Y-50000000D03*
%TD*%
D13*
%TO.C,C2*%
X23050000Y-72000000D03*
X24950000Y-72000000D03*
%TD*%
D10*
%TO.C,R13*%
X29087500Y-38000000D03*
X30912500Y-38000000D03*
%TD*%
%TO.C,R16*%
X29087500Y-56000000D03*
X30912500Y-56000000D03*
%TD*%
D14*
%TO.C,SW7*%
X54000000Y-46000000D03*
X60500000Y-46000000D03*
X54000000Y-50500000D03*
X60500000Y-50500000D03*
%TD*%
D21*
%TO.C,J1*%
X4000000Y-70000000D03*
D22*
X4000000Y-72540000D03*
%TD*%
D10*
%TO.C,R5*%
X53087500Y-75000000D03*
X54912500Y-75000000D03*
%TD*%
%TO.C,R11*%
X23087500Y-62000000D03*
X24912500Y-62000000D03*
%TD*%
D14*
%TO.C,SW14*%
X87000000Y-58000000D03*
X93500000Y-58000000D03*
X87000000Y-62500000D03*
X93500000Y-62500000D03*
%TD*%
D23*
%TO.C,BZ1*%
X42000000Y-72000000D03*
D14*
X47000000Y-72000000D03*
%TD*%
D21*
%TO.C,J7*%
X78000000Y-6000000D03*
D22*
X78000000Y-8540000D03*
X78000000Y-11080000D03*
X78000000Y-13620000D03*
%TD*%
D14*
%TO.C,SW9*%
X76000000Y-46000000D03*
X82500000Y-46000000D03*
X76000000Y-50500000D03*
X82500000Y-50500000D03*
%TD*%
D13*
%TO.C,C4*%
X35050000Y-38000000D03*
X36950000Y-38000000D03*
%TD*%
D14*
%TO.C,SW4*%
X65000000Y-34000000D03*
X71500000Y-34000000D03*
X65000000Y-38500000D03*
X71500000Y-38500000D03*
%TD*%
%TO.C,SW10*%
X87000000Y-46000000D03*
X93500000Y-46000000D03*
X87000000Y-50500000D03*
X93500000Y-50500000D03*
%TD*%
D24*
%TO.C,C7*%
X18000000Y-36950000D03*
X18000000Y-35050000D03*
%TD*%
D14*
%TO.C,SW5*%
X76000000Y-34000000D03*
X82500000Y-34000000D03*
X76000000Y-38500000D03*
X82500000Y-38500000D03*
%TD*%
D10*
%TO.C,R14*%
X29087500Y-44000000D03*
X30912500Y-44000000D03*
%TD*%
D14*
%TO.C,SW1*%
X43000000Y-30000000D03*
X49500000Y-30000000D03*
X43000000Y-34500000D03*
X49500000Y-34500000D03*
%TD*%
%TO.C,SW2*%
X43000000Y-42000000D03*
X49500000Y-42000000D03*
X43000000Y-46500000D03*
X49500000Y-46500000D03*
%TD*%
D21*
%TO.C,J3*%
X54000000Y-6000000D03*
D22*
X54000000Y-8540000D03*
X54000000Y-11080000D03*
X54000000Y-13620000D03*
X54000000Y-16160000D03*
X54000000Y-18700000D03*
X54000000Y-21240000D03*
X54000000Y-23780000D03*
%TD*%
D21*
%TO.C,J2*%
X4000000Y-50000000D03*
D22*
X4000000Y-52540000D03*
X4000000Y-55080000D03*
X4000000Y-57620000D03*
X4000000Y-60160000D03*
X4000000Y-62700000D03*
%TD*%
D24*
%TO.C,C8*%
X18000000Y-50950000D03*
X18000000Y-49050000D03*
%TD*%
D25*
%TO.C,Q1*%
X53062500Y-69050000D03*
X53062500Y-70950000D03*
X54937500Y-70000000D03*
%TD*%
D10*
%TO.C,R10*%
X23087500Y-56000000D03*
X24912500Y-56000000D03*
%TD*%
D21*
%TO.C,J5*%
X66000000Y-6000000D03*
D22*
X66000000Y-8540000D03*
X66000000Y-11080000D03*
X66000000Y-13620000D03*
X66000000Y-16160000D03*
%TD*%
D13*
%TO.C,C5*%
X35050000Y-42000000D03*
X36950000Y-42000000D03*
%TD*%
D10*
%TO.C,R6*%
X23087500Y-32000000D03*
X24912500Y-32000000D03*
%TD*%
D14*
%TO.C,SW6*%
X87000000Y-34000000D03*
X93500000Y-34000000D03*
X87000000Y-38500000D03*
X93500000Y-38500000D03*
%TD*%
D21*
%TO.C,J6*%
X72000000Y-6000000D03*
D22*
X72000000Y-8540000D03*
X72000000Y-11080000D03*
%TD*%
M02*
