%TF.GenerationSoftware,KiCad,Pcbnew,10.0.6-1.fc44*%
%TF.CreationDate,2026-09-15T16:49:13+07:00*%
%TF.ProjectId,inSomnia,696e536f-6d6e-4696-912e-6b696361645f,rev?*%
%TF.SameCoordinates,Original*%
%TF.FileFunction,Legend,Top*%
%TF.FilePolarity,Positive*%
%FSLAX46Y46*%
G04 Gerber Fmt 4.6, Leading zero omitted, Abs format (unit mm)*
G04 Created by KiCad (PCBNEW 10.0.6-1.fc44) date 2026-09-15 16:49:13*
%MOMM*%
%LPD*%
G01*
G04 APERTURE LIST*
G04 Aperture macros list*
%AMRoundRect*
0 Rectangle with rounded corners*
0 $1 Rounding radius*
0 $2 $3 $4 $5 $6 $7 $8 $9 X,Y pos of 4 corners*
0 Add a 4 corners polygon primitive as box body*
4,1,4,$2,$3,$4,$5,$6,$7,$8,$9,$2,$3,0*
0 Add four circle primitives for the rounded corners*
1,1,$1+$1,$2,$3*
1,1,$1+$1,$4,$5*
1,1,$1+$1,$6,$7*
1,1,$1+$1,$8,$9*
0 Add four rect primitives between the rounded corners*
20,1,$1+$1,$2,$3,$4,$5,0*
20,1,$1+$1,$4,$5,$6,$7,0*
20,1,$1+$1,$6,$7,$8,$9,0*
20,1,$1+$1,$8,$9,$2,$3,0*%
G04 Aperture macros list end*
%ADD10C,0.150000*%
%ADD11C,0.120000*%
%ADD12RoundRect,0.250000X-0.262500X-0.450000X0.262500X-0.450000X0.262500X0.450000X-0.262500X0.450000X0*%
%ADD13RoundRect,0.375000X-0.625000X-0.375000X0.625000X-0.375000X0.625000X0.375000X-0.625000X0.375000X0*%
%ADD14RoundRect,0.500000X-0.500000X-1.400000X0.500000X-1.400000X0.500000X1.400000X-0.500000X1.400000X0*%
%ADD15RoundRect,0.250000X-0.250000X-0.475000X0.250000X-0.475000X0.250000X0.475000X-0.250000X0.475000X0*%
%ADD16C,2.000000*%
%ADD17RoundRect,0.150000X-0.825000X-0.150000X0.825000X-0.150000X0.825000X0.150000X-0.825000X0.150000X0*%
%ADD18R,1.500000X0.900000*%
%ADD19R,0.900000X1.500000*%
%ADD20C,0.600000*%
%ADD21R,3.900000X3.900000*%
%ADD22RoundRect,0.225000X-0.225000X-0.375000X0.225000X-0.375000X0.225000X0.375000X-0.225000X0.375000X0*%
%ADD23R,1.700000X1.700000*%
%ADD24C,1.700000*%
%ADD25R,2.000000X2.000000*%
%ADD26RoundRect,0.250000X0.475000X-0.250000X0.475000X0.250000X-0.475000X0.250000X-0.475000X-0.250000X0*%
%ADD27RoundRect,0.150000X-0.587500X-0.150000X0.587500X-0.150000X0.587500X0.150000X-0.587500X0.150000X0*%
G04 APERTURE END LIST*
D10*
X23833333Y-42804819D02*
X23500000Y-42328628D01*
X23261905Y-42804819D02*
X23261905Y-41804819D01*
X23261905Y-41804819D02*
X23642857Y-41804819D01*
X23642857Y-41804819D02*
X23738095Y-41852438D01*
X23738095Y-41852438D02*
X23785714Y-41900057D01*
X23785714Y-41900057D02*
X23833333Y-41995295D01*
X23833333Y-41995295D02*
X23833333Y-42138152D01*
X23833333Y-42138152D02*
X23785714Y-42233390D01*
X23785714Y-42233390D02*
X23738095Y-42281009D01*
X23738095Y-42281009D02*
X23642857Y-42328628D01*
X23642857Y-42328628D02*
X23261905Y-42328628D01*
X24404762Y-42233390D02*
X24309524Y-42185771D01*
X24309524Y-42185771D02*
X24261905Y-42138152D01*
X24261905Y-42138152D02*
X24214286Y-42042914D01*
X24214286Y-42042914D02*
X24214286Y-41995295D01*
X24214286Y-41995295D02*
X24261905Y-41900057D01*
X24261905Y-41900057D02*
X24309524Y-41852438D01*
X24309524Y-41852438D02*
X24404762Y-41804819D01*
X24404762Y-41804819D02*
X24595238Y-41804819D01*
X24595238Y-41804819D02*
X24690476Y-41852438D01*
X24690476Y-41852438D02*
X24738095Y-41900057D01*
X24738095Y-41900057D02*
X24785714Y-41995295D01*
X24785714Y-41995295D02*
X24785714Y-42042914D01*
X24785714Y-42042914D02*
X24738095Y-42138152D01*
X24738095Y-42138152D02*
X24690476Y-42185771D01*
X24690476Y-42185771D02*
X24595238Y-42233390D01*
X24595238Y-42233390D02*
X24404762Y-42233390D01*
X24404762Y-42233390D02*
X24309524Y-42281009D01*
X24309524Y-42281009D02*
X24261905Y-42328628D01*
X24261905Y-42328628D02*
X24214286Y-42423866D01*
X24214286Y-42423866D02*
X24214286Y-42614342D01*
X24214286Y-42614342D02*
X24261905Y-42709580D01*
X24261905Y-42709580D02*
X24309524Y-42757200D01*
X24309524Y-42757200D02*
X24404762Y-42804819D01*
X24404762Y-42804819D02*
X24595238Y-42804819D01*
X24595238Y-42804819D02*
X24690476Y-42757200D01*
X24690476Y-42757200D02*
X24738095Y-42709580D01*
X24738095Y-42709580D02*
X24785714Y-42614342D01*
X24785714Y-42614342D02*
X24785714Y-42423866D01*
X24785714Y-42423866D02*
X24738095Y-42328628D01*
X24738095Y-42328628D02*
X24690476Y-42281009D01*
X24690476Y-42281009D02*
X24595238Y-42233390D01*
X87833333Y-6804819D02*
X87500000Y-6328628D01*
X87261905Y-6804819D02*
X87261905Y-5804819D01*
X87261905Y-5804819D02*
X87642857Y-5804819D01*
X87642857Y-5804819D02*
X87738095Y-5852438D01*
X87738095Y-5852438D02*
X87785714Y-5900057D01*
X87785714Y-5900057D02*
X87833333Y-5995295D01*
X87833333Y-5995295D02*
X87833333Y-6138152D01*
X87833333Y-6138152D02*
X87785714Y-6233390D01*
X87785714Y-6233390D02*
X87738095Y-6281009D01*
X87738095Y-6281009D02*
X87642857Y-6328628D01*
X87642857Y-6328628D02*
X87261905Y-6328628D01*
X88166667Y-5804819D02*
X88785714Y-5804819D01*
X88785714Y-5804819D02*
X88452381Y-6185771D01*
X88452381Y-6185771D02*
X88595238Y-6185771D01*
X88595238Y-6185771D02*
X88690476Y-6233390D01*
X88690476Y-6233390D02*
X88738095Y-6281009D01*
X88738095Y-6281009D02*
X88785714Y-6376247D01*
X88785714Y-6376247D02*
X88785714Y-6614342D01*
X88785714Y-6614342D02*
X88738095Y-6709580D01*
X88738095Y-6709580D02*
X88690476Y-6757200D01*
X88690476Y-6757200D02*
X88595238Y-6804819D01*
X88595238Y-6804819D02*
X88309524Y-6804819D01*
X88309524Y-6804819D02*
X88214286Y-6757200D01*
X88214286Y-6757200D02*
X88166667Y-6709580D01*
X29357142Y-60804819D02*
X29023809Y-60328628D01*
X28785714Y-60804819D02*
X28785714Y-59804819D01*
X28785714Y-59804819D02*
X29166666Y-59804819D01*
X29166666Y-59804819D02*
X29261904Y-59852438D01*
X29261904Y-59852438D02*
X29309523Y-59900057D01*
X29309523Y-59900057D02*
X29357142Y-59995295D01*
X29357142Y-59995295D02*
X29357142Y-60138152D01*
X29357142Y-60138152D02*
X29309523Y-60233390D01*
X29309523Y-60233390D02*
X29261904Y-60281009D01*
X29261904Y-60281009D02*
X29166666Y-60328628D01*
X29166666Y-60328628D02*
X28785714Y-60328628D01*
X30309523Y-60804819D02*
X29738095Y-60804819D01*
X30023809Y-60804819D02*
X30023809Y-59804819D01*
X30023809Y-59804819D02*
X29928571Y-59947676D01*
X29928571Y-59947676D02*
X29833333Y-60042914D01*
X29833333Y-60042914D02*
X29738095Y-60090533D01*
X30642857Y-59804819D02*
X31309523Y-59804819D01*
X31309523Y-59804819D02*
X30880952Y-60804819D01*
X29357142Y-48804819D02*
X29023809Y-48328628D01*
X28785714Y-48804819D02*
X28785714Y-47804819D01*
X28785714Y-47804819D02*
X29166666Y-47804819D01*
X29166666Y-47804819D02*
X29261904Y-47852438D01*
X29261904Y-47852438D02*
X29309523Y-47900057D01*
X29309523Y-47900057D02*
X29357142Y-47995295D01*
X29357142Y-47995295D02*
X29357142Y-48138152D01*
X29357142Y-48138152D02*
X29309523Y-48233390D01*
X29309523Y-48233390D02*
X29261904Y-48281009D01*
X29261904Y-48281009D02*
X29166666Y-48328628D01*
X29166666Y-48328628D02*
X28785714Y-48328628D01*
X30309523Y-48804819D02*
X29738095Y-48804819D01*
X30023809Y-48804819D02*
X30023809Y-47804819D01*
X30023809Y-47804819D02*
X29928571Y-47947676D01*
X29928571Y-47947676D02*
X29833333Y-48042914D01*
X29833333Y-48042914D02*
X29738095Y-48090533D01*
X31214285Y-47804819D02*
X30738095Y-47804819D01*
X30738095Y-47804819D02*
X30690476Y-48281009D01*
X30690476Y-48281009D02*
X30738095Y-48233390D01*
X30738095Y-48233390D02*
X30833333Y-48185771D01*
X30833333Y-48185771D02*
X31071428Y-48185771D01*
X31071428Y-48185771D02*
X31166666Y-48233390D01*
X31166666Y-48233390D02*
X31214285Y-48281009D01*
X31214285Y-48281009D02*
X31261904Y-48376247D01*
X31261904Y-48376247D02*
X31261904Y-48614342D01*
X31261904Y-48614342D02*
X31214285Y-48709580D01*
X31214285Y-48709580D02*
X31166666Y-48757200D01*
X31166666Y-48757200D02*
X31071428Y-48804819D01*
X31071428Y-48804819D02*
X30833333Y-48804819D01*
X30833333Y-48804819D02*
X30738095Y-48757200D01*
X30738095Y-48757200D02*
X30690476Y-48709580D01*
X13238095Y-64954819D02*
X13238095Y-65764342D01*
X13238095Y-65764342D02*
X13285714Y-65859580D01*
X13285714Y-65859580D02*
X13333333Y-65907200D01*
X13333333Y-65907200D02*
X13428571Y-65954819D01*
X13428571Y-65954819D02*
X13619047Y-65954819D01*
X13619047Y-65954819D02*
X13714285Y-65907200D01*
X13714285Y-65907200D02*
X13761904Y-65859580D01*
X13761904Y-65859580D02*
X13809523Y-65764342D01*
X13809523Y-65764342D02*
X13809523Y-64954819D01*
X14714285Y-65288152D02*
X14714285Y-65954819D01*
X14476190Y-64907200D02*
X14238095Y-65621485D01*
X14238095Y-65621485D02*
X14857142Y-65621485D01*
X23833333Y-66679580D02*
X23785714Y-66727200D01*
X23785714Y-66727200D02*
X23642857Y-66774819D01*
X23642857Y-66774819D02*
X23547619Y-66774819D01*
X23547619Y-66774819D02*
X23404762Y-66727200D01*
X23404762Y-66727200D02*
X23309524Y-66631961D01*
X23309524Y-66631961D02*
X23261905Y-66536723D01*
X23261905Y-66536723D02*
X23214286Y-66346247D01*
X23214286Y-66346247D02*
X23214286Y-66203390D01*
X23214286Y-66203390D02*
X23261905Y-66012914D01*
X23261905Y-66012914D02*
X23309524Y-65917676D01*
X23309524Y-65917676D02*
X23404762Y-65822438D01*
X23404762Y-65822438D02*
X23547619Y-65774819D01*
X23547619Y-65774819D02*
X23642857Y-65774819D01*
X23642857Y-65774819D02*
X23785714Y-65822438D01*
X23785714Y-65822438D02*
X23833333Y-65870057D01*
X24785714Y-66774819D02*
X24214286Y-66774819D01*
X24500000Y-66774819D02*
X24500000Y-65774819D01*
X24500000Y-65774819D02*
X24404762Y-65917676D01*
X24404762Y-65917676D02*
X24309524Y-66012914D01*
X24309524Y-66012914D02*
X24214286Y-66060533D01*
X66440476Y-56407200D02*
X66583333Y-56454819D01*
X66583333Y-56454819D02*
X66821428Y-56454819D01*
X66821428Y-56454819D02*
X66916666Y-56407200D01*
X66916666Y-56407200D02*
X66964285Y-56359580D01*
X66964285Y-56359580D02*
X67011904Y-56264342D01*
X67011904Y-56264342D02*
X67011904Y-56169104D01*
X67011904Y-56169104D02*
X66964285Y-56073866D01*
X66964285Y-56073866D02*
X66916666Y-56026247D01*
X66916666Y-56026247D02*
X66821428Y-55978628D01*
X66821428Y-55978628D02*
X66630952Y-55931009D01*
X66630952Y-55931009D02*
X66535714Y-55883390D01*
X66535714Y-55883390D02*
X66488095Y-55835771D01*
X66488095Y-55835771D02*
X66440476Y-55740533D01*
X66440476Y-55740533D02*
X66440476Y-55645295D01*
X66440476Y-55645295D02*
X66488095Y-55550057D01*
X66488095Y-55550057D02*
X66535714Y-55502438D01*
X66535714Y-55502438D02*
X66630952Y-55454819D01*
X66630952Y-55454819D02*
X66869047Y-55454819D01*
X66869047Y-55454819D02*
X67011904Y-55502438D01*
X67345238Y-55454819D02*
X67583333Y-56454819D01*
X67583333Y-56454819D02*
X67773809Y-55740533D01*
X67773809Y-55740533D02*
X67964285Y-56454819D01*
X67964285Y-56454819D02*
X68202381Y-55454819D01*
X69107142Y-56454819D02*
X68535714Y-56454819D01*
X68821428Y-56454819D02*
X68821428Y-55454819D01*
X68821428Y-55454819D02*
X68726190Y-55597676D01*
X68726190Y-55597676D02*
X68630952Y-55692914D01*
X68630952Y-55692914D02*
X68535714Y-55740533D01*
X69488095Y-55550057D02*
X69535714Y-55502438D01*
X69535714Y-55502438D02*
X69630952Y-55454819D01*
X69630952Y-55454819D02*
X69869047Y-55454819D01*
X69869047Y-55454819D02*
X69964285Y-55502438D01*
X69964285Y-55502438D02*
X70011904Y-55550057D01*
X70011904Y-55550057D02*
X70059523Y-55645295D01*
X70059523Y-55645295D02*
X70059523Y-55740533D01*
X70059523Y-55740533D02*
X70011904Y-55883390D01*
X70011904Y-55883390D02*
X69440476Y-56454819D01*
X69440476Y-56454819D02*
X70059523Y-56454819D01*
X55440476Y-56407200D02*
X55583333Y-56454819D01*
X55583333Y-56454819D02*
X55821428Y-56454819D01*
X55821428Y-56454819D02*
X55916666Y-56407200D01*
X55916666Y-56407200D02*
X55964285Y-56359580D01*
X55964285Y-56359580D02*
X56011904Y-56264342D01*
X56011904Y-56264342D02*
X56011904Y-56169104D01*
X56011904Y-56169104D02*
X55964285Y-56073866D01*
X55964285Y-56073866D02*
X55916666Y-56026247D01*
X55916666Y-56026247D02*
X55821428Y-55978628D01*
X55821428Y-55978628D02*
X55630952Y-55931009D01*
X55630952Y-55931009D02*
X55535714Y-55883390D01*
X55535714Y-55883390D02*
X55488095Y-55835771D01*
X55488095Y-55835771D02*
X55440476Y-55740533D01*
X55440476Y-55740533D02*
X55440476Y-55645295D01*
X55440476Y-55645295D02*
X55488095Y-55550057D01*
X55488095Y-55550057D02*
X55535714Y-55502438D01*
X55535714Y-55502438D02*
X55630952Y-55454819D01*
X55630952Y-55454819D02*
X55869047Y-55454819D01*
X55869047Y-55454819D02*
X56011904Y-55502438D01*
X56345238Y-55454819D02*
X56583333Y-56454819D01*
X56583333Y-56454819D02*
X56773809Y-55740533D01*
X56773809Y-55740533D02*
X56964285Y-56454819D01*
X56964285Y-56454819D02*
X57202381Y-55454819D01*
X58107142Y-56454819D02*
X57535714Y-56454819D01*
X57821428Y-56454819D02*
X57821428Y-55454819D01*
X57821428Y-55454819D02*
X57726190Y-55597676D01*
X57726190Y-55597676D02*
X57630952Y-55692914D01*
X57630952Y-55692914D02*
X57535714Y-55740533D01*
X59059523Y-56454819D02*
X58488095Y-56454819D01*
X58773809Y-56454819D02*
X58773809Y-55454819D01*
X58773809Y-55454819D02*
X58678571Y-55597676D01*
X58678571Y-55597676D02*
X58583333Y-55692914D01*
X58583333Y-55692914D02*
X58488095Y-55740533D01*
X35833333Y-32804819D02*
X35500000Y-32328628D01*
X35261905Y-32804819D02*
X35261905Y-31804819D01*
X35261905Y-31804819D02*
X35642857Y-31804819D01*
X35642857Y-31804819D02*
X35738095Y-31852438D01*
X35738095Y-31852438D02*
X35785714Y-31900057D01*
X35785714Y-31900057D02*
X35833333Y-31995295D01*
X35833333Y-31995295D02*
X35833333Y-32138152D01*
X35833333Y-32138152D02*
X35785714Y-32233390D01*
X35785714Y-32233390D02*
X35738095Y-32281009D01*
X35738095Y-32281009D02*
X35642857Y-32328628D01*
X35642857Y-32328628D02*
X35261905Y-32328628D01*
X36214286Y-31900057D02*
X36261905Y-31852438D01*
X36261905Y-31852438D02*
X36357143Y-31804819D01*
X36357143Y-31804819D02*
X36595238Y-31804819D01*
X36595238Y-31804819D02*
X36690476Y-31852438D01*
X36690476Y-31852438D02*
X36738095Y-31900057D01*
X36738095Y-31900057D02*
X36785714Y-31995295D01*
X36785714Y-31995295D02*
X36785714Y-32090533D01*
X36785714Y-32090533D02*
X36738095Y-32233390D01*
X36738095Y-32233390D02*
X36166667Y-32804819D01*
X36166667Y-32804819D02*
X36785714Y-32804819D01*
X87833333Y-11804819D02*
X87500000Y-11328628D01*
X87261905Y-11804819D02*
X87261905Y-10804819D01*
X87261905Y-10804819D02*
X87642857Y-10804819D01*
X87642857Y-10804819D02*
X87738095Y-10852438D01*
X87738095Y-10852438D02*
X87785714Y-10900057D01*
X87785714Y-10900057D02*
X87833333Y-10995295D01*
X87833333Y-10995295D02*
X87833333Y-11138152D01*
X87833333Y-11138152D02*
X87785714Y-11233390D01*
X87785714Y-11233390D02*
X87738095Y-11281009D01*
X87738095Y-11281009D02*
X87642857Y-11328628D01*
X87642857Y-11328628D02*
X87261905Y-11328628D01*
X88690476Y-11138152D02*
X88690476Y-11804819D01*
X88452381Y-10757200D02*
X88214286Y-11471485D01*
X88214286Y-11471485D02*
X88833333Y-11471485D01*
X66916667Y-44407200D02*
X67059524Y-44454819D01*
X67059524Y-44454819D02*
X67297619Y-44454819D01*
X67297619Y-44454819D02*
X67392857Y-44407200D01*
X67392857Y-44407200D02*
X67440476Y-44359580D01*
X67440476Y-44359580D02*
X67488095Y-44264342D01*
X67488095Y-44264342D02*
X67488095Y-44169104D01*
X67488095Y-44169104D02*
X67440476Y-44073866D01*
X67440476Y-44073866D02*
X67392857Y-44026247D01*
X67392857Y-44026247D02*
X67297619Y-43978628D01*
X67297619Y-43978628D02*
X67107143Y-43931009D01*
X67107143Y-43931009D02*
X67011905Y-43883390D01*
X67011905Y-43883390D02*
X66964286Y-43835771D01*
X66964286Y-43835771D02*
X66916667Y-43740533D01*
X66916667Y-43740533D02*
X66916667Y-43645295D01*
X66916667Y-43645295D02*
X66964286Y-43550057D01*
X66964286Y-43550057D02*
X67011905Y-43502438D01*
X67011905Y-43502438D02*
X67107143Y-43454819D01*
X67107143Y-43454819D02*
X67345238Y-43454819D01*
X67345238Y-43454819D02*
X67488095Y-43502438D01*
X67821429Y-43454819D02*
X68059524Y-44454819D01*
X68059524Y-44454819D02*
X68250000Y-43740533D01*
X68250000Y-43740533D02*
X68440476Y-44454819D01*
X68440476Y-44454819D02*
X68678572Y-43454819D01*
X69202381Y-43883390D02*
X69107143Y-43835771D01*
X69107143Y-43835771D02*
X69059524Y-43788152D01*
X69059524Y-43788152D02*
X69011905Y-43692914D01*
X69011905Y-43692914D02*
X69011905Y-43645295D01*
X69011905Y-43645295D02*
X69059524Y-43550057D01*
X69059524Y-43550057D02*
X69107143Y-43502438D01*
X69107143Y-43502438D02*
X69202381Y-43454819D01*
X69202381Y-43454819D02*
X69392857Y-43454819D01*
X69392857Y-43454819D02*
X69488095Y-43502438D01*
X69488095Y-43502438D02*
X69535714Y-43550057D01*
X69535714Y-43550057D02*
X69583333Y-43645295D01*
X69583333Y-43645295D02*
X69583333Y-43692914D01*
X69583333Y-43692914D02*
X69535714Y-43788152D01*
X69535714Y-43788152D02*
X69488095Y-43835771D01*
X69488095Y-43835771D02*
X69392857Y-43883390D01*
X69392857Y-43883390D02*
X69202381Y-43883390D01*
X69202381Y-43883390D02*
X69107143Y-43931009D01*
X69107143Y-43931009D02*
X69059524Y-43978628D01*
X69059524Y-43978628D02*
X69011905Y-44073866D01*
X69011905Y-44073866D02*
X69011905Y-44264342D01*
X69011905Y-44264342D02*
X69059524Y-44359580D01*
X69059524Y-44359580D02*
X69107143Y-44407200D01*
X69107143Y-44407200D02*
X69202381Y-44454819D01*
X69202381Y-44454819D02*
X69392857Y-44454819D01*
X69392857Y-44454819D02*
X69488095Y-44407200D01*
X69488095Y-44407200D02*
X69535714Y-44359580D01*
X69535714Y-44359580D02*
X69583333Y-44264342D01*
X69583333Y-44264342D02*
X69583333Y-44073866D01*
X69583333Y-44073866D02*
X69535714Y-43978628D01*
X69535714Y-43978628D02*
X69488095Y-43931009D01*
X69488095Y-43931009D02*
X69392857Y-43883390D01*
X23833333Y-36804819D02*
X23500000Y-36328628D01*
X23261905Y-36804819D02*
X23261905Y-35804819D01*
X23261905Y-35804819D02*
X23642857Y-35804819D01*
X23642857Y-35804819D02*
X23738095Y-35852438D01*
X23738095Y-35852438D02*
X23785714Y-35900057D01*
X23785714Y-35900057D02*
X23833333Y-35995295D01*
X23833333Y-35995295D02*
X23833333Y-36138152D01*
X23833333Y-36138152D02*
X23785714Y-36233390D01*
X23785714Y-36233390D02*
X23738095Y-36281009D01*
X23738095Y-36281009D02*
X23642857Y-36328628D01*
X23642857Y-36328628D02*
X23261905Y-36328628D01*
X24166667Y-35804819D02*
X24833333Y-35804819D01*
X24833333Y-35804819D02*
X24404762Y-36804819D01*
X77440476Y-56407200D02*
X77583333Y-56454819D01*
X77583333Y-56454819D02*
X77821428Y-56454819D01*
X77821428Y-56454819D02*
X77916666Y-56407200D01*
X77916666Y-56407200D02*
X77964285Y-56359580D01*
X77964285Y-56359580D02*
X78011904Y-56264342D01*
X78011904Y-56264342D02*
X78011904Y-56169104D01*
X78011904Y-56169104D02*
X77964285Y-56073866D01*
X77964285Y-56073866D02*
X77916666Y-56026247D01*
X77916666Y-56026247D02*
X77821428Y-55978628D01*
X77821428Y-55978628D02*
X77630952Y-55931009D01*
X77630952Y-55931009D02*
X77535714Y-55883390D01*
X77535714Y-55883390D02*
X77488095Y-55835771D01*
X77488095Y-55835771D02*
X77440476Y-55740533D01*
X77440476Y-55740533D02*
X77440476Y-55645295D01*
X77440476Y-55645295D02*
X77488095Y-55550057D01*
X77488095Y-55550057D02*
X77535714Y-55502438D01*
X77535714Y-55502438D02*
X77630952Y-55454819D01*
X77630952Y-55454819D02*
X77869047Y-55454819D01*
X77869047Y-55454819D02*
X78011904Y-55502438D01*
X78345238Y-55454819D02*
X78583333Y-56454819D01*
X78583333Y-56454819D02*
X78773809Y-55740533D01*
X78773809Y-55740533D02*
X78964285Y-56454819D01*
X78964285Y-56454819D02*
X79202381Y-55454819D01*
X80107142Y-56454819D02*
X79535714Y-56454819D01*
X79821428Y-56454819D02*
X79821428Y-55454819D01*
X79821428Y-55454819D02*
X79726190Y-55597676D01*
X79726190Y-55597676D02*
X79630952Y-55692914D01*
X79630952Y-55692914D02*
X79535714Y-55740533D01*
X80440476Y-55454819D02*
X81059523Y-55454819D01*
X81059523Y-55454819D02*
X80726190Y-55835771D01*
X80726190Y-55835771D02*
X80869047Y-55835771D01*
X80869047Y-55835771D02*
X80964285Y-55883390D01*
X80964285Y-55883390D02*
X81011904Y-55931009D01*
X81011904Y-55931009D02*
X81059523Y-56026247D01*
X81059523Y-56026247D02*
X81059523Y-56264342D01*
X81059523Y-56264342D02*
X81011904Y-56359580D01*
X81011904Y-56359580D02*
X80964285Y-56407200D01*
X80964285Y-56407200D02*
X80869047Y-56454819D01*
X80869047Y-56454819D02*
X80583333Y-56454819D01*
X80583333Y-56454819D02*
X80488095Y-56407200D01*
X80488095Y-56407200D02*
X80440476Y-56359580D01*
X11238095Y-29554819D02*
X11238095Y-30364342D01*
X11238095Y-30364342D02*
X11285714Y-30459580D01*
X11285714Y-30459580D02*
X11333333Y-30507200D01*
X11333333Y-30507200D02*
X11428571Y-30554819D01*
X11428571Y-30554819D02*
X11619047Y-30554819D01*
X11619047Y-30554819D02*
X11714285Y-30507200D01*
X11714285Y-30507200D02*
X11761904Y-30459580D01*
X11761904Y-30459580D02*
X11809523Y-30364342D01*
X11809523Y-30364342D02*
X11809523Y-29554819D01*
X12190476Y-29554819D02*
X12809523Y-29554819D01*
X12809523Y-29554819D02*
X12476190Y-29935771D01*
X12476190Y-29935771D02*
X12619047Y-29935771D01*
X12619047Y-29935771D02*
X12714285Y-29983390D01*
X12714285Y-29983390D02*
X12761904Y-30031009D01*
X12761904Y-30031009D02*
X12809523Y-30126247D01*
X12809523Y-30126247D02*
X12809523Y-30364342D01*
X12809523Y-30364342D02*
X12761904Y-30459580D01*
X12761904Y-30459580D02*
X12714285Y-30507200D01*
X12714285Y-30507200D02*
X12619047Y-30554819D01*
X12619047Y-30554819D02*
X12333333Y-30554819D01*
X12333333Y-30554819D02*
X12238095Y-30507200D01*
X12238095Y-30507200D02*
X12190476Y-30459580D01*
X35833333Y-44679580D02*
X35785714Y-44727200D01*
X35785714Y-44727200D02*
X35642857Y-44774819D01*
X35642857Y-44774819D02*
X35547619Y-44774819D01*
X35547619Y-44774819D02*
X35404762Y-44727200D01*
X35404762Y-44727200D02*
X35309524Y-44631961D01*
X35309524Y-44631961D02*
X35261905Y-44536723D01*
X35261905Y-44536723D02*
X35214286Y-44346247D01*
X35214286Y-44346247D02*
X35214286Y-44203390D01*
X35214286Y-44203390D02*
X35261905Y-44012914D01*
X35261905Y-44012914D02*
X35309524Y-43917676D01*
X35309524Y-43917676D02*
X35404762Y-43822438D01*
X35404762Y-43822438D02*
X35547619Y-43774819D01*
X35547619Y-43774819D02*
X35642857Y-43774819D01*
X35642857Y-43774819D02*
X35785714Y-43822438D01*
X35785714Y-43822438D02*
X35833333Y-43870057D01*
X36690476Y-43774819D02*
X36500000Y-43774819D01*
X36500000Y-43774819D02*
X36404762Y-43822438D01*
X36404762Y-43822438D02*
X36357143Y-43870057D01*
X36357143Y-43870057D02*
X36261905Y-44012914D01*
X36261905Y-44012914D02*
X36214286Y-44203390D01*
X36214286Y-44203390D02*
X36214286Y-44584342D01*
X36214286Y-44584342D02*
X36261905Y-44679580D01*
X36261905Y-44679580D02*
X36309524Y-44727200D01*
X36309524Y-44727200D02*
X36404762Y-44774819D01*
X36404762Y-44774819D02*
X36595238Y-44774819D01*
X36595238Y-44774819D02*
X36690476Y-44727200D01*
X36690476Y-44727200D02*
X36738095Y-44679580D01*
X36738095Y-44679580D02*
X36785714Y-44584342D01*
X36785714Y-44584342D02*
X36785714Y-44346247D01*
X36785714Y-44346247D02*
X36738095Y-44251009D01*
X36738095Y-44251009D02*
X36690476Y-44203390D01*
X36690476Y-44203390D02*
X36595238Y-44155771D01*
X36595238Y-44155771D02*
X36404762Y-44155771D01*
X36404762Y-44155771D02*
X36309524Y-44203390D01*
X36309524Y-44203390D02*
X36261905Y-44251009D01*
X36261905Y-44251009D02*
X36214286Y-44346247D01*
X14954819Y-25161904D02*
X15764342Y-25161904D01*
X15764342Y-25161904D02*
X15859580Y-25114285D01*
X15859580Y-25114285D02*
X15907200Y-25066666D01*
X15907200Y-25066666D02*
X15954819Y-24971428D01*
X15954819Y-24971428D02*
X15954819Y-24780952D01*
X15954819Y-24780952D02*
X15907200Y-24685714D01*
X15907200Y-24685714D02*
X15859580Y-24638095D01*
X15859580Y-24638095D02*
X15764342Y-24590476D01*
X15764342Y-24590476D02*
X14954819Y-24590476D01*
X15954819Y-23590476D02*
X15954819Y-24161904D01*
X15954819Y-23876190D02*
X14954819Y-23876190D01*
X14954819Y-23876190D02*
X15097676Y-23971428D01*
X15097676Y-23971428D02*
X15192914Y-24066666D01*
X15192914Y-24066666D02*
X15240533Y-24161904D01*
X11238095Y-43554819D02*
X11238095Y-44364342D01*
X11238095Y-44364342D02*
X11285714Y-44459580D01*
X11285714Y-44459580D02*
X11333333Y-44507200D01*
X11333333Y-44507200D02*
X11428571Y-44554819D01*
X11428571Y-44554819D02*
X11619047Y-44554819D01*
X11619047Y-44554819D02*
X11714285Y-44507200D01*
X11714285Y-44507200D02*
X11761904Y-44459580D01*
X11761904Y-44459580D02*
X11809523Y-44364342D01*
X11809523Y-44364342D02*
X11809523Y-43554819D01*
X12238095Y-43650057D02*
X12285714Y-43602438D01*
X12285714Y-43602438D02*
X12380952Y-43554819D01*
X12380952Y-43554819D02*
X12619047Y-43554819D01*
X12619047Y-43554819D02*
X12714285Y-43602438D01*
X12714285Y-43602438D02*
X12761904Y-43650057D01*
X12761904Y-43650057D02*
X12809523Y-43745295D01*
X12809523Y-43745295D02*
X12809523Y-43840533D01*
X12809523Y-43840533D02*
X12761904Y-43983390D01*
X12761904Y-43983390D02*
X12190476Y-44554819D01*
X12190476Y-44554819D02*
X12809523Y-44554819D01*
X35833333Y-28804819D02*
X35500000Y-28328628D01*
X35261905Y-28804819D02*
X35261905Y-27804819D01*
X35261905Y-27804819D02*
X35642857Y-27804819D01*
X35642857Y-27804819D02*
X35738095Y-27852438D01*
X35738095Y-27852438D02*
X35785714Y-27900057D01*
X35785714Y-27900057D02*
X35833333Y-27995295D01*
X35833333Y-27995295D02*
X35833333Y-28138152D01*
X35833333Y-28138152D02*
X35785714Y-28233390D01*
X35785714Y-28233390D02*
X35738095Y-28281009D01*
X35738095Y-28281009D02*
X35642857Y-28328628D01*
X35642857Y-28328628D02*
X35261905Y-28328628D01*
X36785714Y-28804819D02*
X36214286Y-28804819D01*
X36500000Y-28804819D02*
X36500000Y-27804819D01*
X36500000Y-27804819D02*
X36404762Y-27947676D01*
X36404762Y-27947676D02*
X36309524Y-28042914D01*
X36309524Y-28042914D02*
X36214286Y-28090533D01*
X29357142Y-30804819D02*
X29023809Y-30328628D01*
X28785714Y-30804819D02*
X28785714Y-29804819D01*
X28785714Y-29804819D02*
X29166666Y-29804819D01*
X29166666Y-29804819D02*
X29261904Y-29852438D01*
X29261904Y-29852438D02*
X29309523Y-29900057D01*
X29309523Y-29900057D02*
X29357142Y-29995295D01*
X29357142Y-29995295D02*
X29357142Y-30138152D01*
X29357142Y-30138152D02*
X29309523Y-30233390D01*
X29309523Y-30233390D02*
X29261904Y-30281009D01*
X29261904Y-30281009D02*
X29166666Y-30328628D01*
X29166666Y-30328628D02*
X28785714Y-30328628D01*
X30309523Y-30804819D02*
X29738095Y-30804819D01*
X30023809Y-30804819D02*
X30023809Y-29804819D01*
X30023809Y-29804819D02*
X29928571Y-29947676D01*
X29928571Y-29947676D02*
X29833333Y-30042914D01*
X29833333Y-30042914D02*
X29738095Y-30090533D01*
X30690476Y-29900057D02*
X30738095Y-29852438D01*
X30738095Y-29852438D02*
X30833333Y-29804819D01*
X30833333Y-29804819D02*
X31071428Y-29804819D01*
X31071428Y-29804819D02*
X31166666Y-29852438D01*
X31166666Y-29852438D02*
X31214285Y-29900057D01*
X31214285Y-29900057D02*
X31261904Y-29995295D01*
X31261904Y-29995295D02*
X31261904Y-30090533D01*
X31261904Y-30090533D02*
X31214285Y-30233390D01*
X31214285Y-30233390D02*
X30642857Y-30804819D01*
X30642857Y-30804819D02*
X31261904Y-30804819D01*
X55916667Y-32407200D02*
X56059524Y-32454819D01*
X56059524Y-32454819D02*
X56297619Y-32454819D01*
X56297619Y-32454819D02*
X56392857Y-32407200D01*
X56392857Y-32407200D02*
X56440476Y-32359580D01*
X56440476Y-32359580D02*
X56488095Y-32264342D01*
X56488095Y-32264342D02*
X56488095Y-32169104D01*
X56488095Y-32169104D02*
X56440476Y-32073866D01*
X56440476Y-32073866D02*
X56392857Y-32026247D01*
X56392857Y-32026247D02*
X56297619Y-31978628D01*
X56297619Y-31978628D02*
X56107143Y-31931009D01*
X56107143Y-31931009D02*
X56011905Y-31883390D01*
X56011905Y-31883390D02*
X55964286Y-31835771D01*
X55964286Y-31835771D02*
X55916667Y-31740533D01*
X55916667Y-31740533D02*
X55916667Y-31645295D01*
X55916667Y-31645295D02*
X55964286Y-31550057D01*
X55964286Y-31550057D02*
X56011905Y-31502438D01*
X56011905Y-31502438D02*
X56107143Y-31454819D01*
X56107143Y-31454819D02*
X56345238Y-31454819D01*
X56345238Y-31454819D02*
X56488095Y-31502438D01*
X56821429Y-31454819D02*
X57059524Y-32454819D01*
X57059524Y-32454819D02*
X57250000Y-31740533D01*
X57250000Y-31740533D02*
X57440476Y-32454819D01*
X57440476Y-32454819D02*
X57678572Y-31454819D01*
X57964286Y-31454819D02*
X58583333Y-31454819D01*
X58583333Y-31454819D02*
X58250000Y-31835771D01*
X58250000Y-31835771D02*
X58392857Y-31835771D01*
X58392857Y-31835771D02*
X58488095Y-31883390D01*
X58488095Y-31883390D02*
X58535714Y-31931009D01*
X58535714Y-31931009D02*
X58583333Y-32026247D01*
X58583333Y-32026247D02*
X58583333Y-32264342D01*
X58583333Y-32264342D02*
X58535714Y-32359580D01*
X58535714Y-32359580D02*
X58488095Y-32407200D01*
X58488095Y-32407200D02*
X58392857Y-32454819D01*
X58392857Y-32454819D02*
X58107143Y-32454819D01*
X58107143Y-32454819D02*
X58011905Y-32407200D01*
X58011905Y-32407200D02*
X57964286Y-32359580D01*
X61261905Y-68454819D02*
X61261905Y-67454819D01*
X61261905Y-67454819D02*
X61500000Y-67454819D01*
X61500000Y-67454819D02*
X61642857Y-67502438D01*
X61642857Y-67502438D02*
X61738095Y-67597676D01*
X61738095Y-67597676D02*
X61785714Y-67692914D01*
X61785714Y-67692914D02*
X61833333Y-67883390D01*
X61833333Y-67883390D02*
X61833333Y-68026247D01*
X61833333Y-68026247D02*
X61785714Y-68216723D01*
X61785714Y-68216723D02*
X61738095Y-68311961D01*
X61738095Y-68311961D02*
X61642857Y-68407200D01*
X61642857Y-68407200D02*
X61500000Y-68454819D01*
X61500000Y-68454819D02*
X61261905Y-68454819D01*
X62785714Y-68454819D02*
X62214286Y-68454819D01*
X62500000Y-68454819D02*
X62500000Y-67454819D01*
X62500000Y-67454819D02*
X62404762Y-67597676D01*
X62404762Y-67597676D02*
X62309524Y-67692914D01*
X62309524Y-67692914D02*
X62214286Y-67740533D01*
X29833333Y-66679580D02*
X29785714Y-66727200D01*
X29785714Y-66727200D02*
X29642857Y-66774819D01*
X29642857Y-66774819D02*
X29547619Y-66774819D01*
X29547619Y-66774819D02*
X29404762Y-66727200D01*
X29404762Y-66727200D02*
X29309524Y-66631961D01*
X29309524Y-66631961D02*
X29261905Y-66536723D01*
X29261905Y-66536723D02*
X29214286Y-66346247D01*
X29214286Y-66346247D02*
X29214286Y-66203390D01*
X29214286Y-66203390D02*
X29261905Y-66012914D01*
X29261905Y-66012914D02*
X29309524Y-65917676D01*
X29309524Y-65917676D02*
X29404762Y-65822438D01*
X29404762Y-65822438D02*
X29547619Y-65774819D01*
X29547619Y-65774819D02*
X29642857Y-65774819D01*
X29642857Y-65774819D02*
X29785714Y-65822438D01*
X29785714Y-65822438D02*
X29833333Y-65870057D01*
X30166667Y-65774819D02*
X30785714Y-65774819D01*
X30785714Y-65774819D02*
X30452381Y-66155771D01*
X30452381Y-66155771D02*
X30595238Y-66155771D01*
X30595238Y-66155771D02*
X30690476Y-66203390D01*
X30690476Y-66203390D02*
X30738095Y-66251009D01*
X30738095Y-66251009D02*
X30785714Y-66346247D01*
X30785714Y-66346247D02*
X30785714Y-66584342D01*
X30785714Y-66584342D02*
X30738095Y-66679580D01*
X30738095Y-66679580D02*
X30690476Y-66727200D01*
X30690476Y-66727200D02*
X30595238Y-66774819D01*
X30595238Y-66774819D02*
X30309524Y-66774819D01*
X30309524Y-66774819D02*
X30214286Y-66727200D01*
X30214286Y-66727200D02*
X30166667Y-66679580D01*
X59666666Y-3074819D02*
X59666666Y-3789104D01*
X59666666Y-3789104D02*
X59619047Y-3931961D01*
X59619047Y-3931961D02*
X59523809Y-4027200D01*
X59523809Y-4027200D02*
X59380952Y-4074819D01*
X59380952Y-4074819D02*
X59285714Y-4074819D01*
X60571428Y-3408152D02*
X60571428Y-4074819D01*
X60333333Y-3027200D02*
X60095238Y-3741485D01*
X60095238Y-3741485D02*
X60714285Y-3741485D01*
X23833333Y-48804819D02*
X23500000Y-48328628D01*
X23261905Y-48804819D02*
X23261905Y-47804819D01*
X23261905Y-47804819D02*
X23642857Y-47804819D01*
X23642857Y-47804819D02*
X23738095Y-47852438D01*
X23738095Y-47852438D02*
X23785714Y-47900057D01*
X23785714Y-47900057D02*
X23833333Y-47995295D01*
X23833333Y-47995295D02*
X23833333Y-48138152D01*
X23833333Y-48138152D02*
X23785714Y-48233390D01*
X23785714Y-48233390D02*
X23738095Y-48281009D01*
X23738095Y-48281009D02*
X23642857Y-48328628D01*
X23642857Y-48328628D02*
X23261905Y-48328628D01*
X24309524Y-48804819D02*
X24500000Y-48804819D01*
X24500000Y-48804819D02*
X24595238Y-48757200D01*
X24595238Y-48757200D02*
X24642857Y-48709580D01*
X24642857Y-48709580D02*
X24738095Y-48566723D01*
X24738095Y-48566723D02*
X24785714Y-48376247D01*
X24785714Y-48376247D02*
X24785714Y-47995295D01*
X24785714Y-47995295D02*
X24738095Y-47900057D01*
X24738095Y-47900057D02*
X24690476Y-47852438D01*
X24690476Y-47852438D02*
X24595238Y-47804819D01*
X24595238Y-47804819D02*
X24404762Y-47804819D01*
X24404762Y-47804819D02*
X24309524Y-47852438D01*
X24309524Y-47852438D02*
X24261905Y-47900057D01*
X24261905Y-47900057D02*
X24214286Y-47995295D01*
X24214286Y-47995295D02*
X24214286Y-48233390D01*
X24214286Y-48233390D02*
X24261905Y-48328628D01*
X24261905Y-48328628D02*
X24309524Y-48376247D01*
X24309524Y-48376247D02*
X24404762Y-48423866D01*
X24404762Y-48423866D02*
X24595238Y-48423866D01*
X24595238Y-48423866D02*
X24690476Y-48376247D01*
X24690476Y-48376247D02*
X24738095Y-48328628D01*
X24738095Y-48328628D02*
X24785714Y-48233390D01*
X23833333Y-70679580D02*
X23785714Y-70727200D01*
X23785714Y-70727200D02*
X23642857Y-70774819D01*
X23642857Y-70774819D02*
X23547619Y-70774819D01*
X23547619Y-70774819D02*
X23404762Y-70727200D01*
X23404762Y-70727200D02*
X23309524Y-70631961D01*
X23309524Y-70631961D02*
X23261905Y-70536723D01*
X23261905Y-70536723D02*
X23214286Y-70346247D01*
X23214286Y-70346247D02*
X23214286Y-70203390D01*
X23214286Y-70203390D02*
X23261905Y-70012914D01*
X23261905Y-70012914D02*
X23309524Y-69917676D01*
X23309524Y-69917676D02*
X23404762Y-69822438D01*
X23404762Y-69822438D02*
X23547619Y-69774819D01*
X23547619Y-69774819D02*
X23642857Y-69774819D01*
X23642857Y-69774819D02*
X23785714Y-69822438D01*
X23785714Y-69822438D02*
X23833333Y-69870057D01*
X24214286Y-69870057D02*
X24261905Y-69822438D01*
X24261905Y-69822438D02*
X24357143Y-69774819D01*
X24357143Y-69774819D02*
X24595238Y-69774819D01*
X24595238Y-69774819D02*
X24690476Y-69822438D01*
X24690476Y-69822438D02*
X24738095Y-69870057D01*
X24738095Y-69870057D02*
X24785714Y-69965295D01*
X24785714Y-69965295D02*
X24785714Y-70060533D01*
X24785714Y-70060533D02*
X24738095Y-70203390D01*
X24738095Y-70203390D02*
X24166667Y-70774819D01*
X24166667Y-70774819D02*
X24785714Y-70774819D01*
X29357142Y-36804819D02*
X29023809Y-36328628D01*
X28785714Y-36804819D02*
X28785714Y-35804819D01*
X28785714Y-35804819D02*
X29166666Y-35804819D01*
X29166666Y-35804819D02*
X29261904Y-35852438D01*
X29261904Y-35852438D02*
X29309523Y-35900057D01*
X29309523Y-35900057D02*
X29357142Y-35995295D01*
X29357142Y-35995295D02*
X29357142Y-36138152D01*
X29357142Y-36138152D02*
X29309523Y-36233390D01*
X29309523Y-36233390D02*
X29261904Y-36281009D01*
X29261904Y-36281009D02*
X29166666Y-36328628D01*
X29166666Y-36328628D02*
X28785714Y-36328628D01*
X30309523Y-36804819D02*
X29738095Y-36804819D01*
X30023809Y-36804819D02*
X30023809Y-35804819D01*
X30023809Y-35804819D02*
X29928571Y-35947676D01*
X29928571Y-35947676D02*
X29833333Y-36042914D01*
X29833333Y-36042914D02*
X29738095Y-36090533D01*
X30642857Y-35804819D02*
X31261904Y-35804819D01*
X31261904Y-35804819D02*
X30928571Y-36185771D01*
X30928571Y-36185771D02*
X31071428Y-36185771D01*
X31071428Y-36185771D02*
X31166666Y-36233390D01*
X31166666Y-36233390D02*
X31214285Y-36281009D01*
X31214285Y-36281009D02*
X31261904Y-36376247D01*
X31261904Y-36376247D02*
X31261904Y-36614342D01*
X31261904Y-36614342D02*
X31214285Y-36709580D01*
X31214285Y-36709580D02*
X31166666Y-36757200D01*
X31166666Y-36757200D02*
X31071428Y-36804819D01*
X31071428Y-36804819D02*
X30785714Y-36804819D01*
X30785714Y-36804819D02*
X30690476Y-36757200D01*
X30690476Y-36757200D02*
X30642857Y-36709580D01*
X29357142Y-54804819D02*
X29023809Y-54328628D01*
X28785714Y-54804819D02*
X28785714Y-53804819D01*
X28785714Y-53804819D02*
X29166666Y-53804819D01*
X29166666Y-53804819D02*
X29261904Y-53852438D01*
X29261904Y-53852438D02*
X29309523Y-53900057D01*
X29309523Y-53900057D02*
X29357142Y-53995295D01*
X29357142Y-53995295D02*
X29357142Y-54138152D01*
X29357142Y-54138152D02*
X29309523Y-54233390D01*
X29309523Y-54233390D02*
X29261904Y-54281009D01*
X29261904Y-54281009D02*
X29166666Y-54328628D01*
X29166666Y-54328628D02*
X28785714Y-54328628D01*
X30309523Y-54804819D02*
X29738095Y-54804819D01*
X30023809Y-54804819D02*
X30023809Y-53804819D01*
X30023809Y-53804819D02*
X29928571Y-53947676D01*
X29928571Y-53947676D02*
X29833333Y-54042914D01*
X29833333Y-54042914D02*
X29738095Y-54090533D01*
X31166666Y-53804819D02*
X30976190Y-53804819D01*
X30976190Y-53804819D02*
X30880952Y-53852438D01*
X30880952Y-53852438D02*
X30833333Y-53900057D01*
X30833333Y-53900057D02*
X30738095Y-54042914D01*
X30738095Y-54042914D02*
X30690476Y-54233390D01*
X30690476Y-54233390D02*
X30690476Y-54614342D01*
X30690476Y-54614342D02*
X30738095Y-54709580D01*
X30738095Y-54709580D02*
X30785714Y-54757200D01*
X30785714Y-54757200D02*
X30880952Y-54804819D01*
X30880952Y-54804819D02*
X31071428Y-54804819D01*
X31071428Y-54804819D02*
X31166666Y-54757200D01*
X31166666Y-54757200D02*
X31214285Y-54709580D01*
X31214285Y-54709580D02*
X31261904Y-54614342D01*
X31261904Y-54614342D02*
X31261904Y-54376247D01*
X31261904Y-54376247D02*
X31214285Y-54281009D01*
X31214285Y-54281009D02*
X31166666Y-54233390D01*
X31166666Y-54233390D02*
X31071428Y-54185771D01*
X31071428Y-54185771D02*
X30880952Y-54185771D01*
X30880952Y-54185771D02*
X30785714Y-54233390D01*
X30785714Y-54233390D02*
X30738095Y-54281009D01*
X30738095Y-54281009D02*
X30690476Y-54376247D01*
X55916667Y-44407200D02*
X56059524Y-44454819D01*
X56059524Y-44454819D02*
X56297619Y-44454819D01*
X56297619Y-44454819D02*
X56392857Y-44407200D01*
X56392857Y-44407200D02*
X56440476Y-44359580D01*
X56440476Y-44359580D02*
X56488095Y-44264342D01*
X56488095Y-44264342D02*
X56488095Y-44169104D01*
X56488095Y-44169104D02*
X56440476Y-44073866D01*
X56440476Y-44073866D02*
X56392857Y-44026247D01*
X56392857Y-44026247D02*
X56297619Y-43978628D01*
X56297619Y-43978628D02*
X56107143Y-43931009D01*
X56107143Y-43931009D02*
X56011905Y-43883390D01*
X56011905Y-43883390D02*
X55964286Y-43835771D01*
X55964286Y-43835771D02*
X55916667Y-43740533D01*
X55916667Y-43740533D02*
X55916667Y-43645295D01*
X55916667Y-43645295D02*
X55964286Y-43550057D01*
X55964286Y-43550057D02*
X56011905Y-43502438D01*
X56011905Y-43502438D02*
X56107143Y-43454819D01*
X56107143Y-43454819D02*
X56345238Y-43454819D01*
X56345238Y-43454819D02*
X56488095Y-43502438D01*
X56821429Y-43454819D02*
X57059524Y-44454819D01*
X57059524Y-44454819D02*
X57250000Y-43740533D01*
X57250000Y-43740533D02*
X57440476Y-44454819D01*
X57440476Y-44454819D02*
X57678572Y-43454819D01*
X57964286Y-43454819D02*
X58630952Y-43454819D01*
X58630952Y-43454819D02*
X58202381Y-44454819D01*
X3666666Y-67074819D02*
X3666666Y-67789104D01*
X3666666Y-67789104D02*
X3619047Y-67931961D01*
X3619047Y-67931961D02*
X3523809Y-68027200D01*
X3523809Y-68027200D02*
X3380952Y-68074819D01*
X3380952Y-68074819D02*
X3285714Y-68074819D01*
X4666666Y-68074819D02*
X4095238Y-68074819D01*
X4380952Y-68074819D02*
X4380952Y-67074819D01*
X4380952Y-67074819D02*
X4285714Y-67217676D01*
X4285714Y-67217676D02*
X4190476Y-67312914D01*
X4190476Y-67312914D02*
X4095238Y-67360533D01*
X53833333Y-73804819D02*
X53500000Y-73328628D01*
X53261905Y-73804819D02*
X53261905Y-72804819D01*
X53261905Y-72804819D02*
X53642857Y-72804819D01*
X53642857Y-72804819D02*
X53738095Y-72852438D01*
X53738095Y-72852438D02*
X53785714Y-72900057D01*
X53785714Y-72900057D02*
X53833333Y-72995295D01*
X53833333Y-72995295D02*
X53833333Y-73138152D01*
X53833333Y-73138152D02*
X53785714Y-73233390D01*
X53785714Y-73233390D02*
X53738095Y-73281009D01*
X53738095Y-73281009D02*
X53642857Y-73328628D01*
X53642857Y-73328628D02*
X53261905Y-73328628D01*
X54738095Y-72804819D02*
X54261905Y-72804819D01*
X54261905Y-72804819D02*
X54214286Y-73281009D01*
X54214286Y-73281009D02*
X54261905Y-73233390D01*
X54261905Y-73233390D02*
X54357143Y-73185771D01*
X54357143Y-73185771D02*
X54595238Y-73185771D01*
X54595238Y-73185771D02*
X54690476Y-73233390D01*
X54690476Y-73233390D02*
X54738095Y-73281009D01*
X54738095Y-73281009D02*
X54785714Y-73376247D01*
X54785714Y-73376247D02*
X54785714Y-73614342D01*
X54785714Y-73614342D02*
X54738095Y-73709580D01*
X54738095Y-73709580D02*
X54690476Y-73757200D01*
X54690476Y-73757200D02*
X54595238Y-73804819D01*
X54595238Y-73804819D02*
X54357143Y-73804819D01*
X54357143Y-73804819D02*
X54261905Y-73757200D01*
X54261905Y-73757200D02*
X54214286Y-73709580D01*
X23357142Y-60804819D02*
X23023809Y-60328628D01*
X22785714Y-60804819D02*
X22785714Y-59804819D01*
X22785714Y-59804819D02*
X23166666Y-59804819D01*
X23166666Y-59804819D02*
X23261904Y-59852438D01*
X23261904Y-59852438D02*
X23309523Y-59900057D01*
X23309523Y-59900057D02*
X23357142Y-59995295D01*
X23357142Y-59995295D02*
X23357142Y-60138152D01*
X23357142Y-60138152D02*
X23309523Y-60233390D01*
X23309523Y-60233390D02*
X23261904Y-60281009D01*
X23261904Y-60281009D02*
X23166666Y-60328628D01*
X23166666Y-60328628D02*
X22785714Y-60328628D01*
X24309523Y-60804819D02*
X23738095Y-60804819D01*
X24023809Y-60804819D02*
X24023809Y-59804819D01*
X24023809Y-59804819D02*
X23928571Y-59947676D01*
X23928571Y-59947676D02*
X23833333Y-60042914D01*
X23833333Y-60042914D02*
X23738095Y-60090533D01*
X25261904Y-60804819D02*
X24690476Y-60804819D01*
X24976190Y-60804819D02*
X24976190Y-59804819D01*
X24976190Y-59804819D02*
X24880952Y-59947676D01*
X24880952Y-59947676D02*
X24785714Y-60042914D01*
X24785714Y-60042914D02*
X24690476Y-60090533D01*
X88440476Y-56407200D02*
X88583333Y-56454819D01*
X88583333Y-56454819D02*
X88821428Y-56454819D01*
X88821428Y-56454819D02*
X88916666Y-56407200D01*
X88916666Y-56407200D02*
X88964285Y-56359580D01*
X88964285Y-56359580D02*
X89011904Y-56264342D01*
X89011904Y-56264342D02*
X89011904Y-56169104D01*
X89011904Y-56169104D02*
X88964285Y-56073866D01*
X88964285Y-56073866D02*
X88916666Y-56026247D01*
X88916666Y-56026247D02*
X88821428Y-55978628D01*
X88821428Y-55978628D02*
X88630952Y-55931009D01*
X88630952Y-55931009D02*
X88535714Y-55883390D01*
X88535714Y-55883390D02*
X88488095Y-55835771D01*
X88488095Y-55835771D02*
X88440476Y-55740533D01*
X88440476Y-55740533D02*
X88440476Y-55645295D01*
X88440476Y-55645295D02*
X88488095Y-55550057D01*
X88488095Y-55550057D02*
X88535714Y-55502438D01*
X88535714Y-55502438D02*
X88630952Y-55454819D01*
X88630952Y-55454819D02*
X88869047Y-55454819D01*
X88869047Y-55454819D02*
X89011904Y-55502438D01*
X89345238Y-55454819D02*
X89583333Y-56454819D01*
X89583333Y-56454819D02*
X89773809Y-55740533D01*
X89773809Y-55740533D02*
X89964285Y-56454819D01*
X89964285Y-56454819D02*
X90202381Y-55454819D01*
X91107142Y-56454819D02*
X90535714Y-56454819D01*
X90821428Y-56454819D02*
X90821428Y-55454819D01*
X90821428Y-55454819D02*
X90726190Y-55597676D01*
X90726190Y-55597676D02*
X90630952Y-55692914D01*
X90630952Y-55692914D02*
X90535714Y-55740533D01*
X91964285Y-55788152D02*
X91964285Y-56454819D01*
X91726190Y-55407200D02*
X91488095Y-56121485D01*
X91488095Y-56121485D02*
X92107142Y-56121485D01*
X43619047Y-64761009D02*
X43761904Y-64808628D01*
X43761904Y-64808628D02*
X43809523Y-64856247D01*
X43809523Y-64856247D02*
X43857142Y-64951485D01*
X43857142Y-64951485D02*
X43857142Y-65094342D01*
X43857142Y-65094342D02*
X43809523Y-65189580D01*
X43809523Y-65189580D02*
X43761904Y-65237200D01*
X43761904Y-65237200D02*
X43666666Y-65284819D01*
X43666666Y-65284819D02*
X43285714Y-65284819D01*
X43285714Y-65284819D02*
X43285714Y-64284819D01*
X43285714Y-64284819D02*
X43619047Y-64284819D01*
X43619047Y-64284819D02*
X43714285Y-64332438D01*
X43714285Y-64332438D02*
X43761904Y-64380057D01*
X43761904Y-64380057D02*
X43809523Y-64475295D01*
X43809523Y-64475295D02*
X43809523Y-64570533D01*
X43809523Y-64570533D02*
X43761904Y-64665771D01*
X43761904Y-64665771D02*
X43714285Y-64713390D01*
X43714285Y-64713390D02*
X43619047Y-64761009D01*
X43619047Y-64761009D02*
X43285714Y-64761009D01*
X44190476Y-64284819D02*
X44857142Y-64284819D01*
X44857142Y-64284819D02*
X44190476Y-65284819D01*
X44190476Y-65284819D02*
X44857142Y-65284819D01*
X45761904Y-65284819D02*
X45190476Y-65284819D01*
X45476190Y-65284819D02*
X45476190Y-64284819D01*
X45476190Y-64284819D02*
X45380952Y-64427676D01*
X45380952Y-64427676D02*
X45285714Y-64522914D01*
X45285714Y-64522914D02*
X45190476Y-64570533D01*
X77666666Y-3074819D02*
X77666666Y-3789104D01*
X77666666Y-3789104D02*
X77619047Y-3931961D01*
X77619047Y-3931961D02*
X77523809Y-4027200D01*
X77523809Y-4027200D02*
X77380952Y-4074819D01*
X77380952Y-4074819D02*
X77285714Y-4074819D01*
X78047619Y-3074819D02*
X78714285Y-3074819D01*
X78714285Y-3074819D02*
X78285714Y-4074819D01*
X77916667Y-44407200D02*
X78059524Y-44454819D01*
X78059524Y-44454819D02*
X78297619Y-44454819D01*
X78297619Y-44454819D02*
X78392857Y-44407200D01*
X78392857Y-44407200D02*
X78440476Y-44359580D01*
X78440476Y-44359580D02*
X78488095Y-44264342D01*
X78488095Y-44264342D02*
X78488095Y-44169104D01*
X78488095Y-44169104D02*
X78440476Y-44073866D01*
X78440476Y-44073866D02*
X78392857Y-44026247D01*
X78392857Y-44026247D02*
X78297619Y-43978628D01*
X78297619Y-43978628D02*
X78107143Y-43931009D01*
X78107143Y-43931009D02*
X78011905Y-43883390D01*
X78011905Y-43883390D02*
X77964286Y-43835771D01*
X77964286Y-43835771D02*
X77916667Y-43740533D01*
X77916667Y-43740533D02*
X77916667Y-43645295D01*
X77916667Y-43645295D02*
X77964286Y-43550057D01*
X77964286Y-43550057D02*
X78011905Y-43502438D01*
X78011905Y-43502438D02*
X78107143Y-43454819D01*
X78107143Y-43454819D02*
X78345238Y-43454819D01*
X78345238Y-43454819D02*
X78488095Y-43502438D01*
X78821429Y-43454819D02*
X79059524Y-44454819D01*
X79059524Y-44454819D02*
X79250000Y-43740533D01*
X79250000Y-43740533D02*
X79440476Y-44454819D01*
X79440476Y-44454819D02*
X79678572Y-43454819D01*
X80107143Y-44454819D02*
X80297619Y-44454819D01*
X80297619Y-44454819D02*
X80392857Y-44407200D01*
X80392857Y-44407200D02*
X80440476Y-44359580D01*
X80440476Y-44359580D02*
X80535714Y-44216723D01*
X80535714Y-44216723D02*
X80583333Y-44026247D01*
X80583333Y-44026247D02*
X80583333Y-43645295D01*
X80583333Y-43645295D02*
X80535714Y-43550057D01*
X80535714Y-43550057D02*
X80488095Y-43502438D01*
X80488095Y-43502438D02*
X80392857Y-43454819D01*
X80392857Y-43454819D02*
X80202381Y-43454819D01*
X80202381Y-43454819D02*
X80107143Y-43502438D01*
X80107143Y-43502438D02*
X80059524Y-43550057D01*
X80059524Y-43550057D02*
X80011905Y-43645295D01*
X80011905Y-43645295D02*
X80011905Y-43883390D01*
X80011905Y-43883390D02*
X80059524Y-43978628D01*
X80059524Y-43978628D02*
X80107143Y-44026247D01*
X80107143Y-44026247D02*
X80202381Y-44073866D01*
X80202381Y-44073866D02*
X80392857Y-44073866D01*
X80392857Y-44073866D02*
X80488095Y-44026247D01*
X80488095Y-44026247D02*
X80535714Y-43978628D01*
X80535714Y-43978628D02*
X80583333Y-43883390D01*
X35833333Y-36679580D02*
X35785714Y-36727200D01*
X35785714Y-36727200D02*
X35642857Y-36774819D01*
X35642857Y-36774819D02*
X35547619Y-36774819D01*
X35547619Y-36774819D02*
X35404762Y-36727200D01*
X35404762Y-36727200D02*
X35309524Y-36631961D01*
X35309524Y-36631961D02*
X35261905Y-36536723D01*
X35261905Y-36536723D02*
X35214286Y-36346247D01*
X35214286Y-36346247D02*
X35214286Y-36203390D01*
X35214286Y-36203390D02*
X35261905Y-36012914D01*
X35261905Y-36012914D02*
X35309524Y-35917676D01*
X35309524Y-35917676D02*
X35404762Y-35822438D01*
X35404762Y-35822438D02*
X35547619Y-35774819D01*
X35547619Y-35774819D02*
X35642857Y-35774819D01*
X35642857Y-35774819D02*
X35785714Y-35822438D01*
X35785714Y-35822438D02*
X35833333Y-35870057D01*
X36690476Y-36108152D02*
X36690476Y-36774819D01*
X36452381Y-35727200D02*
X36214286Y-36441485D01*
X36214286Y-36441485D02*
X36833333Y-36441485D01*
X66916667Y-32407200D02*
X67059524Y-32454819D01*
X67059524Y-32454819D02*
X67297619Y-32454819D01*
X67297619Y-32454819D02*
X67392857Y-32407200D01*
X67392857Y-32407200D02*
X67440476Y-32359580D01*
X67440476Y-32359580D02*
X67488095Y-32264342D01*
X67488095Y-32264342D02*
X67488095Y-32169104D01*
X67488095Y-32169104D02*
X67440476Y-32073866D01*
X67440476Y-32073866D02*
X67392857Y-32026247D01*
X67392857Y-32026247D02*
X67297619Y-31978628D01*
X67297619Y-31978628D02*
X67107143Y-31931009D01*
X67107143Y-31931009D02*
X67011905Y-31883390D01*
X67011905Y-31883390D02*
X66964286Y-31835771D01*
X66964286Y-31835771D02*
X66916667Y-31740533D01*
X66916667Y-31740533D02*
X66916667Y-31645295D01*
X66916667Y-31645295D02*
X66964286Y-31550057D01*
X66964286Y-31550057D02*
X67011905Y-31502438D01*
X67011905Y-31502438D02*
X67107143Y-31454819D01*
X67107143Y-31454819D02*
X67345238Y-31454819D01*
X67345238Y-31454819D02*
X67488095Y-31502438D01*
X67821429Y-31454819D02*
X68059524Y-32454819D01*
X68059524Y-32454819D02*
X68250000Y-31740533D01*
X68250000Y-31740533D02*
X68440476Y-32454819D01*
X68440476Y-32454819D02*
X68678572Y-31454819D01*
X69488095Y-31788152D02*
X69488095Y-32454819D01*
X69250000Y-31407200D02*
X69011905Y-32121485D01*
X69011905Y-32121485D02*
X69630952Y-32121485D01*
X88440476Y-44407200D02*
X88583333Y-44454819D01*
X88583333Y-44454819D02*
X88821428Y-44454819D01*
X88821428Y-44454819D02*
X88916666Y-44407200D01*
X88916666Y-44407200D02*
X88964285Y-44359580D01*
X88964285Y-44359580D02*
X89011904Y-44264342D01*
X89011904Y-44264342D02*
X89011904Y-44169104D01*
X89011904Y-44169104D02*
X88964285Y-44073866D01*
X88964285Y-44073866D02*
X88916666Y-44026247D01*
X88916666Y-44026247D02*
X88821428Y-43978628D01*
X88821428Y-43978628D02*
X88630952Y-43931009D01*
X88630952Y-43931009D02*
X88535714Y-43883390D01*
X88535714Y-43883390D02*
X88488095Y-43835771D01*
X88488095Y-43835771D02*
X88440476Y-43740533D01*
X88440476Y-43740533D02*
X88440476Y-43645295D01*
X88440476Y-43645295D02*
X88488095Y-43550057D01*
X88488095Y-43550057D02*
X88535714Y-43502438D01*
X88535714Y-43502438D02*
X88630952Y-43454819D01*
X88630952Y-43454819D02*
X88869047Y-43454819D01*
X88869047Y-43454819D02*
X89011904Y-43502438D01*
X89345238Y-43454819D02*
X89583333Y-44454819D01*
X89583333Y-44454819D02*
X89773809Y-43740533D01*
X89773809Y-43740533D02*
X89964285Y-44454819D01*
X89964285Y-44454819D02*
X90202381Y-43454819D01*
X91107142Y-44454819D02*
X90535714Y-44454819D01*
X90821428Y-44454819D02*
X90821428Y-43454819D01*
X90821428Y-43454819D02*
X90726190Y-43597676D01*
X90726190Y-43597676D02*
X90630952Y-43692914D01*
X90630952Y-43692914D02*
X90535714Y-43740533D01*
X91726190Y-43454819D02*
X91821428Y-43454819D01*
X91821428Y-43454819D02*
X91916666Y-43502438D01*
X91916666Y-43502438D02*
X91964285Y-43550057D01*
X91964285Y-43550057D02*
X92011904Y-43645295D01*
X92011904Y-43645295D02*
X92059523Y-43835771D01*
X92059523Y-43835771D02*
X92059523Y-44073866D01*
X92059523Y-44073866D02*
X92011904Y-44264342D01*
X92011904Y-44264342D02*
X91964285Y-44359580D01*
X91964285Y-44359580D02*
X91916666Y-44407200D01*
X91916666Y-44407200D02*
X91821428Y-44454819D01*
X91821428Y-44454819D02*
X91726190Y-44454819D01*
X91726190Y-44454819D02*
X91630952Y-44407200D01*
X91630952Y-44407200D02*
X91583333Y-44359580D01*
X91583333Y-44359580D02*
X91535714Y-44264342D01*
X91535714Y-44264342D02*
X91488095Y-44073866D01*
X91488095Y-44073866D02*
X91488095Y-43835771D01*
X91488095Y-43835771D02*
X91535714Y-43645295D01*
X91535714Y-43645295D02*
X91583333Y-43550057D01*
X91583333Y-43550057D02*
X91630952Y-43502438D01*
X91630952Y-43502438D02*
X91726190Y-43454819D01*
X16679580Y-36166666D02*
X16727200Y-36214285D01*
X16727200Y-36214285D02*
X16774819Y-36357142D01*
X16774819Y-36357142D02*
X16774819Y-36452380D01*
X16774819Y-36452380D02*
X16727200Y-36595237D01*
X16727200Y-36595237D02*
X16631961Y-36690475D01*
X16631961Y-36690475D02*
X16536723Y-36738094D01*
X16536723Y-36738094D02*
X16346247Y-36785713D01*
X16346247Y-36785713D02*
X16203390Y-36785713D01*
X16203390Y-36785713D02*
X16012914Y-36738094D01*
X16012914Y-36738094D02*
X15917676Y-36690475D01*
X15917676Y-36690475D02*
X15822438Y-36595237D01*
X15822438Y-36595237D02*
X15774819Y-36452380D01*
X15774819Y-36452380D02*
X15774819Y-36357142D01*
X15774819Y-36357142D02*
X15822438Y-36214285D01*
X15822438Y-36214285D02*
X15870057Y-36166666D01*
X15774819Y-35833332D02*
X15774819Y-35166666D01*
X15774819Y-35166666D02*
X16774819Y-35595237D01*
X77916667Y-32407200D02*
X78059524Y-32454819D01*
X78059524Y-32454819D02*
X78297619Y-32454819D01*
X78297619Y-32454819D02*
X78392857Y-32407200D01*
X78392857Y-32407200D02*
X78440476Y-32359580D01*
X78440476Y-32359580D02*
X78488095Y-32264342D01*
X78488095Y-32264342D02*
X78488095Y-32169104D01*
X78488095Y-32169104D02*
X78440476Y-32073866D01*
X78440476Y-32073866D02*
X78392857Y-32026247D01*
X78392857Y-32026247D02*
X78297619Y-31978628D01*
X78297619Y-31978628D02*
X78107143Y-31931009D01*
X78107143Y-31931009D02*
X78011905Y-31883390D01*
X78011905Y-31883390D02*
X77964286Y-31835771D01*
X77964286Y-31835771D02*
X77916667Y-31740533D01*
X77916667Y-31740533D02*
X77916667Y-31645295D01*
X77916667Y-31645295D02*
X77964286Y-31550057D01*
X77964286Y-31550057D02*
X78011905Y-31502438D01*
X78011905Y-31502438D02*
X78107143Y-31454819D01*
X78107143Y-31454819D02*
X78345238Y-31454819D01*
X78345238Y-31454819D02*
X78488095Y-31502438D01*
X78821429Y-31454819D02*
X79059524Y-32454819D01*
X79059524Y-32454819D02*
X79250000Y-31740533D01*
X79250000Y-31740533D02*
X79440476Y-32454819D01*
X79440476Y-32454819D02*
X79678572Y-31454819D01*
X80535714Y-31454819D02*
X80059524Y-31454819D01*
X80059524Y-31454819D02*
X80011905Y-31931009D01*
X80011905Y-31931009D02*
X80059524Y-31883390D01*
X80059524Y-31883390D02*
X80154762Y-31835771D01*
X80154762Y-31835771D02*
X80392857Y-31835771D01*
X80392857Y-31835771D02*
X80488095Y-31883390D01*
X80488095Y-31883390D02*
X80535714Y-31931009D01*
X80535714Y-31931009D02*
X80583333Y-32026247D01*
X80583333Y-32026247D02*
X80583333Y-32264342D01*
X80583333Y-32264342D02*
X80535714Y-32359580D01*
X80535714Y-32359580D02*
X80488095Y-32407200D01*
X80488095Y-32407200D02*
X80392857Y-32454819D01*
X80392857Y-32454819D02*
X80154762Y-32454819D01*
X80154762Y-32454819D02*
X80059524Y-32407200D01*
X80059524Y-32407200D02*
X80011905Y-32359580D01*
X29357142Y-42804819D02*
X29023809Y-42328628D01*
X28785714Y-42804819D02*
X28785714Y-41804819D01*
X28785714Y-41804819D02*
X29166666Y-41804819D01*
X29166666Y-41804819D02*
X29261904Y-41852438D01*
X29261904Y-41852438D02*
X29309523Y-41900057D01*
X29309523Y-41900057D02*
X29357142Y-41995295D01*
X29357142Y-41995295D02*
X29357142Y-42138152D01*
X29357142Y-42138152D02*
X29309523Y-42233390D01*
X29309523Y-42233390D02*
X29261904Y-42281009D01*
X29261904Y-42281009D02*
X29166666Y-42328628D01*
X29166666Y-42328628D02*
X28785714Y-42328628D01*
X30309523Y-42804819D02*
X29738095Y-42804819D01*
X30023809Y-42804819D02*
X30023809Y-41804819D01*
X30023809Y-41804819D02*
X29928571Y-41947676D01*
X29928571Y-41947676D02*
X29833333Y-42042914D01*
X29833333Y-42042914D02*
X29738095Y-42090533D01*
X31166666Y-42138152D02*
X31166666Y-42804819D01*
X30928571Y-41757200D02*
X30690476Y-42471485D01*
X30690476Y-42471485D02*
X31309523Y-42471485D01*
X44916667Y-28407200D02*
X45059524Y-28454819D01*
X45059524Y-28454819D02*
X45297619Y-28454819D01*
X45297619Y-28454819D02*
X45392857Y-28407200D01*
X45392857Y-28407200D02*
X45440476Y-28359580D01*
X45440476Y-28359580D02*
X45488095Y-28264342D01*
X45488095Y-28264342D02*
X45488095Y-28169104D01*
X45488095Y-28169104D02*
X45440476Y-28073866D01*
X45440476Y-28073866D02*
X45392857Y-28026247D01*
X45392857Y-28026247D02*
X45297619Y-27978628D01*
X45297619Y-27978628D02*
X45107143Y-27931009D01*
X45107143Y-27931009D02*
X45011905Y-27883390D01*
X45011905Y-27883390D02*
X44964286Y-27835771D01*
X44964286Y-27835771D02*
X44916667Y-27740533D01*
X44916667Y-27740533D02*
X44916667Y-27645295D01*
X44916667Y-27645295D02*
X44964286Y-27550057D01*
X44964286Y-27550057D02*
X45011905Y-27502438D01*
X45011905Y-27502438D02*
X45107143Y-27454819D01*
X45107143Y-27454819D02*
X45345238Y-27454819D01*
X45345238Y-27454819D02*
X45488095Y-27502438D01*
X45821429Y-27454819D02*
X46059524Y-28454819D01*
X46059524Y-28454819D02*
X46250000Y-27740533D01*
X46250000Y-27740533D02*
X46440476Y-28454819D01*
X46440476Y-28454819D02*
X46678572Y-27454819D01*
X47583333Y-28454819D02*
X47011905Y-28454819D01*
X47297619Y-28454819D02*
X47297619Y-27454819D01*
X47297619Y-27454819D02*
X47202381Y-27597676D01*
X47202381Y-27597676D02*
X47107143Y-27692914D01*
X47107143Y-27692914D02*
X47011905Y-27740533D01*
X44916667Y-40407200D02*
X45059524Y-40454819D01*
X45059524Y-40454819D02*
X45297619Y-40454819D01*
X45297619Y-40454819D02*
X45392857Y-40407200D01*
X45392857Y-40407200D02*
X45440476Y-40359580D01*
X45440476Y-40359580D02*
X45488095Y-40264342D01*
X45488095Y-40264342D02*
X45488095Y-40169104D01*
X45488095Y-40169104D02*
X45440476Y-40073866D01*
X45440476Y-40073866D02*
X45392857Y-40026247D01*
X45392857Y-40026247D02*
X45297619Y-39978628D01*
X45297619Y-39978628D02*
X45107143Y-39931009D01*
X45107143Y-39931009D02*
X45011905Y-39883390D01*
X45011905Y-39883390D02*
X44964286Y-39835771D01*
X44964286Y-39835771D02*
X44916667Y-39740533D01*
X44916667Y-39740533D02*
X44916667Y-39645295D01*
X44916667Y-39645295D02*
X44964286Y-39550057D01*
X44964286Y-39550057D02*
X45011905Y-39502438D01*
X45011905Y-39502438D02*
X45107143Y-39454819D01*
X45107143Y-39454819D02*
X45345238Y-39454819D01*
X45345238Y-39454819D02*
X45488095Y-39502438D01*
X45821429Y-39454819D02*
X46059524Y-40454819D01*
X46059524Y-40454819D02*
X46250000Y-39740533D01*
X46250000Y-39740533D02*
X46440476Y-40454819D01*
X46440476Y-40454819D02*
X46678572Y-39454819D01*
X47011905Y-39550057D02*
X47059524Y-39502438D01*
X47059524Y-39502438D02*
X47154762Y-39454819D01*
X47154762Y-39454819D02*
X47392857Y-39454819D01*
X47392857Y-39454819D02*
X47488095Y-39502438D01*
X47488095Y-39502438D02*
X47535714Y-39550057D01*
X47535714Y-39550057D02*
X47583333Y-39645295D01*
X47583333Y-39645295D02*
X47583333Y-39740533D01*
X47583333Y-39740533D02*
X47535714Y-39883390D01*
X47535714Y-39883390D02*
X46964286Y-40454819D01*
X46964286Y-40454819D02*
X47583333Y-40454819D01*
X53666666Y-3074819D02*
X53666666Y-3789104D01*
X53666666Y-3789104D02*
X53619047Y-3931961D01*
X53619047Y-3931961D02*
X53523809Y-4027200D01*
X53523809Y-4027200D02*
X53380952Y-4074819D01*
X53380952Y-4074819D02*
X53285714Y-4074819D01*
X54047619Y-3074819D02*
X54666666Y-3074819D01*
X54666666Y-3074819D02*
X54333333Y-3455771D01*
X54333333Y-3455771D02*
X54476190Y-3455771D01*
X54476190Y-3455771D02*
X54571428Y-3503390D01*
X54571428Y-3503390D02*
X54619047Y-3551009D01*
X54619047Y-3551009D02*
X54666666Y-3646247D01*
X54666666Y-3646247D02*
X54666666Y-3884342D01*
X54666666Y-3884342D02*
X54619047Y-3979580D01*
X54619047Y-3979580D02*
X54571428Y-4027200D01*
X54571428Y-4027200D02*
X54476190Y-4074819D01*
X54476190Y-4074819D02*
X54190476Y-4074819D01*
X54190476Y-4074819D02*
X54095238Y-4027200D01*
X54095238Y-4027200D02*
X54047619Y-3979580D01*
X3666666Y-47074819D02*
X3666666Y-47789104D01*
X3666666Y-47789104D02*
X3619047Y-47931961D01*
X3619047Y-47931961D02*
X3523809Y-48027200D01*
X3523809Y-48027200D02*
X3380952Y-48074819D01*
X3380952Y-48074819D02*
X3285714Y-48074819D01*
X4095238Y-47170057D02*
X4142857Y-47122438D01*
X4142857Y-47122438D02*
X4238095Y-47074819D01*
X4238095Y-47074819D02*
X4476190Y-47074819D01*
X4476190Y-47074819D02*
X4571428Y-47122438D01*
X4571428Y-47122438D02*
X4619047Y-47170057D01*
X4619047Y-47170057D02*
X4666666Y-47265295D01*
X4666666Y-47265295D02*
X4666666Y-47360533D01*
X4666666Y-47360533D02*
X4619047Y-47503390D01*
X4619047Y-47503390D02*
X4047619Y-48074819D01*
X4047619Y-48074819D02*
X4666666Y-48074819D01*
X16679580Y-50166666D02*
X16727200Y-50214285D01*
X16727200Y-50214285D02*
X16774819Y-50357142D01*
X16774819Y-50357142D02*
X16774819Y-50452380D01*
X16774819Y-50452380D02*
X16727200Y-50595237D01*
X16727200Y-50595237D02*
X16631961Y-50690475D01*
X16631961Y-50690475D02*
X16536723Y-50738094D01*
X16536723Y-50738094D02*
X16346247Y-50785713D01*
X16346247Y-50785713D02*
X16203390Y-50785713D01*
X16203390Y-50785713D02*
X16012914Y-50738094D01*
X16012914Y-50738094D02*
X15917676Y-50690475D01*
X15917676Y-50690475D02*
X15822438Y-50595237D01*
X15822438Y-50595237D02*
X15774819Y-50452380D01*
X15774819Y-50452380D02*
X15774819Y-50357142D01*
X15774819Y-50357142D02*
X15822438Y-50214285D01*
X15822438Y-50214285D02*
X15870057Y-50166666D01*
X16203390Y-49595237D02*
X16155771Y-49690475D01*
X16155771Y-49690475D02*
X16108152Y-49738094D01*
X16108152Y-49738094D02*
X16012914Y-49785713D01*
X16012914Y-49785713D02*
X15965295Y-49785713D01*
X15965295Y-49785713D02*
X15870057Y-49738094D01*
X15870057Y-49738094D02*
X15822438Y-49690475D01*
X15822438Y-49690475D02*
X15774819Y-49595237D01*
X15774819Y-49595237D02*
X15774819Y-49404761D01*
X15774819Y-49404761D02*
X15822438Y-49309523D01*
X15822438Y-49309523D02*
X15870057Y-49261904D01*
X15870057Y-49261904D02*
X15965295Y-49214285D01*
X15965295Y-49214285D02*
X16012914Y-49214285D01*
X16012914Y-49214285D02*
X16108152Y-49261904D01*
X16108152Y-49261904D02*
X16155771Y-49309523D01*
X16155771Y-49309523D02*
X16203390Y-49404761D01*
X16203390Y-49404761D02*
X16203390Y-49595237D01*
X16203390Y-49595237D02*
X16251009Y-49690475D01*
X16251009Y-49690475D02*
X16298628Y-49738094D01*
X16298628Y-49738094D02*
X16393866Y-49785713D01*
X16393866Y-49785713D02*
X16584342Y-49785713D01*
X16584342Y-49785713D02*
X16679580Y-49738094D01*
X16679580Y-49738094D02*
X16727200Y-49690475D01*
X16727200Y-49690475D02*
X16774819Y-49595237D01*
X16774819Y-49595237D02*
X16774819Y-49404761D01*
X16774819Y-49404761D02*
X16727200Y-49309523D01*
X16727200Y-49309523D02*
X16679580Y-49261904D01*
X16679580Y-49261904D02*
X16584342Y-49214285D01*
X16584342Y-49214285D02*
X16393866Y-49214285D01*
X16393866Y-49214285D02*
X16298628Y-49261904D01*
X16298628Y-49261904D02*
X16251009Y-49309523D01*
X16251009Y-49309523D02*
X16203390Y-49404761D01*
X53904761Y-68150057D02*
X53809523Y-68102438D01*
X53809523Y-68102438D02*
X53714285Y-68007200D01*
X53714285Y-68007200D02*
X53571428Y-67864342D01*
X53571428Y-67864342D02*
X53476190Y-67816723D01*
X53476190Y-67816723D02*
X53380952Y-67816723D01*
X53428571Y-68054819D02*
X53333333Y-68007200D01*
X53333333Y-68007200D02*
X53238095Y-67911961D01*
X53238095Y-67911961D02*
X53190476Y-67721485D01*
X53190476Y-67721485D02*
X53190476Y-67388152D01*
X53190476Y-67388152D02*
X53238095Y-67197676D01*
X53238095Y-67197676D02*
X53333333Y-67102438D01*
X53333333Y-67102438D02*
X53428571Y-67054819D01*
X53428571Y-67054819D02*
X53619047Y-67054819D01*
X53619047Y-67054819D02*
X53714285Y-67102438D01*
X53714285Y-67102438D02*
X53809523Y-67197676D01*
X53809523Y-67197676D02*
X53857142Y-67388152D01*
X53857142Y-67388152D02*
X53857142Y-67721485D01*
X53857142Y-67721485D02*
X53809523Y-67911961D01*
X53809523Y-67911961D02*
X53714285Y-68007200D01*
X53714285Y-68007200D02*
X53619047Y-68054819D01*
X53619047Y-68054819D02*
X53428571Y-68054819D01*
X54809523Y-68054819D02*
X54238095Y-68054819D01*
X54523809Y-68054819D02*
X54523809Y-67054819D01*
X54523809Y-67054819D02*
X54428571Y-67197676D01*
X54428571Y-67197676D02*
X54333333Y-67292914D01*
X54333333Y-67292914D02*
X54238095Y-67340533D01*
X23357142Y-54804819D02*
X23023809Y-54328628D01*
X22785714Y-54804819D02*
X22785714Y-53804819D01*
X22785714Y-53804819D02*
X23166666Y-53804819D01*
X23166666Y-53804819D02*
X23261904Y-53852438D01*
X23261904Y-53852438D02*
X23309523Y-53900057D01*
X23309523Y-53900057D02*
X23357142Y-53995295D01*
X23357142Y-53995295D02*
X23357142Y-54138152D01*
X23357142Y-54138152D02*
X23309523Y-54233390D01*
X23309523Y-54233390D02*
X23261904Y-54281009D01*
X23261904Y-54281009D02*
X23166666Y-54328628D01*
X23166666Y-54328628D02*
X22785714Y-54328628D01*
X24309523Y-54804819D02*
X23738095Y-54804819D01*
X24023809Y-54804819D02*
X24023809Y-53804819D01*
X24023809Y-53804819D02*
X23928571Y-53947676D01*
X23928571Y-53947676D02*
X23833333Y-54042914D01*
X23833333Y-54042914D02*
X23738095Y-54090533D01*
X24928571Y-53804819D02*
X25023809Y-53804819D01*
X25023809Y-53804819D02*
X25119047Y-53852438D01*
X25119047Y-53852438D02*
X25166666Y-53900057D01*
X25166666Y-53900057D02*
X25214285Y-53995295D01*
X25214285Y-53995295D02*
X25261904Y-54185771D01*
X25261904Y-54185771D02*
X25261904Y-54423866D01*
X25261904Y-54423866D02*
X25214285Y-54614342D01*
X25214285Y-54614342D02*
X25166666Y-54709580D01*
X25166666Y-54709580D02*
X25119047Y-54757200D01*
X25119047Y-54757200D02*
X25023809Y-54804819D01*
X25023809Y-54804819D02*
X24928571Y-54804819D01*
X24928571Y-54804819D02*
X24833333Y-54757200D01*
X24833333Y-54757200D02*
X24785714Y-54709580D01*
X24785714Y-54709580D02*
X24738095Y-54614342D01*
X24738095Y-54614342D02*
X24690476Y-54423866D01*
X24690476Y-54423866D02*
X24690476Y-54185771D01*
X24690476Y-54185771D02*
X24738095Y-53995295D01*
X24738095Y-53995295D02*
X24785714Y-53900057D01*
X24785714Y-53900057D02*
X24833333Y-53852438D01*
X24833333Y-53852438D02*
X24928571Y-53804819D01*
X65666666Y-3074819D02*
X65666666Y-3789104D01*
X65666666Y-3789104D02*
X65619047Y-3931961D01*
X65619047Y-3931961D02*
X65523809Y-4027200D01*
X65523809Y-4027200D02*
X65380952Y-4074819D01*
X65380952Y-4074819D02*
X65285714Y-4074819D01*
X66619047Y-3074819D02*
X66142857Y-3074819D01*
X66142857Y-3074819D02*
X66095238Y-3551009D01*
X66095238Y-3551009D02*
X66142857Y-3503390D01*
X66142857Y-3503390D02*
X66238095Y-3455771D01*
X66238095Y-3455771D02*
X66476190Y-3455771D01*
X66476190Y-3455771D02*
X66571428Y-3503390D01*
X66571428Y-3503390D02*
X66619047Y-3551009D01*
X66619047Y-3551009D02*
X66666666Y-3646247D01*
X66666666Y-3646247D02*
X66666666Y-3884342D01*
X66666666Y-3884342D02*
X66619047Y-3979580D01*
X66619047Y-3979580D02*
X66571428Y-4027200D01*
X66571428Y-4027200D02*
X66476190Y-4074819D01*
X66476190Y-4074819D02*
X66238095Y-4074819D01*
X66238095Y-4074819D02*
X66142857Y-4027200D01*
X66142857Y-4027200D02*
X66095238Y-3979580D01*
X35833333Y-40679580D02*
X35785714Y-40727200D01*
X35785714Y-40727200D02*
X35642857Y-40774819D01*
X35642857Y-40774819D02*
X35547619Y-40774819D01*
X35547619Y-40774819D02*
X35404762Y-40727200D01*
X35404762Y-40727200D02*
X35309524Y-40631961D01*
X35309524Y-40631961D02*
X35261905Y-40536723D01*
X35261905Y-40536723D02*
X35214286Y-40346247D01*
X35214286Y-40346247D02*
X35214286Y-40203390D01*
X35214286Y-40203390D02*
X35261905Y-40012914D01*
X35261905Y-40012914D02*
X35309524Y-39917676D01*
X35309524Y-39917676D02*
X35404762Y-39822438D01*
X35404762Y-39822438D02*
X35547619Y-39774819D01*
X35547619Y-39774819D02*
X35642857Y-39774819D01*
X35642857Y-39774819D02*
X35785714Y-39822438D01*
X35785714Y-39822438D02*
X35833333Y-39870057D01*
X36738095Y-39774819D02*
X36261905Y-39774819D01*
X36261905Y-39774819D02*
X36214286Y-40251009D01*
X36214286Y-40251009D02*
X36261905Y-40203390D01*
X36261905Y-40203390D02*
X36357143Y-40155771D01*
X36357143Y-40155771D02*
X36595238Y-40155771D01*
X36595238Y-40155771D02*
X36690476Y-40203390D01*
X36690476Y-40203390D02*
X36738095Y-40251009D01*
X36738095Y-40251009D02*
X36785714Y-40346247D01*
X36785714Y-40346247D02*
X36785714Y-40584342D01*
X36785714Y-40584342D02*
X36738095Y-40679580D01*
X36738095Y-40679580D02*
X36690476Y-40727200D01*
X36690476Y-40727200D02*
X36595238Y-40774819D01*
X36595238Y-40774819D02*
X36357143Y-40774819D01*
X36357143Y-40774819D02*
X36261905Y-40727200D01*
X36261905Y-40727200D02*
X36214286Y-40679580D01*
X23833333Y-30804819D02*
X23500000Y-30328628D01*
X23261905Y-30804819D02*
X23261905Y-29804819D01*
X23261905Y-29804819D02*
X23642857Y-29804819D01*
X23642857Y-29804819D02*
X23738095Y-29852438D01*
X23738095Y-29852438D02*
X23785714Y-29900057D01*
X23785714Y-29900057D02*
X23833333Y-29995295D01*
X23833333Y-29995295D02*
X23833333Y-30138152D01*
X23833333Y-30138152D02*
X23785714Y-30233390D01*
X23785714Y-30233390D02*
X23738095Y-30281009D01*
X23738095Y-30281009D02*
X23642857Y-30328628D01*
X23642857Y-30328628D02*
X23261905Y-30328628D01*
X24690476Y-29804819D02*
X24500000Y-29804819D01*
X24500000Y-29804819D02*
X24404762Y-29852438D01*
X24404762Y-29852438D02*
X24357143Y-29900057D01*
X24357143Y-29900057D02*
X24261905Y-30042914D01*
X24261905Y-30042914D02*
X24214286Y-30233390D01*
X24214286Y-30233390D02*
X24214286Y-30614342D01*
X24214286Y-30614342D02*
X24261905Y-30709580D01*
X24261905Y-30709580D02*
X24309524Y-30757200D01*
X24309524Y-30757200D02*
X24404762Y-30804819D01*
X24404762Y-30804819D02*
X24595238Y-30804819D01*
X24595238Y-30804819D02*
X24690476Y-30757200D01*
X24690476Y-30757200D02*
X24738095Y-30709580D01*
X24738095Y-30709580D02*
X24785714Y-30614342D01*
X24785714Y-30614342D02*
X24785714Y-30376247D01*
X24785714Y-30376247D02*
X24738095Y-30281009D01*
X24738095Y-30281009D02*
X24690476Y-30233390D01*
X24690476Y-30233390D02*
X24595238Y-30185771D01*
X24595238Y-30185771D02*
X24404762Y-30185771D01*
X24404762Y-30185771D02*
X24309524Y-30233390D01*
X24309524Y-30233390D02*
X24261905Y-30281009D01*
X24261905Y-30281009D02*
X24214286Y-30376247D01*
X88916667Y-32407200D02*
X89059524Y-32454819D01*
X89059524Y-32454819D02*
X89297619Y-32454819D01*
X89297619Y-32454819D02*
X89392857Y-32407200D01*
X89392857Y-32407200D02*
X89440476Y-32359580D01*
X89440476Y-32359580D02*
X89488095Y-32264342D01*
X89488095Y-32264342D02*
X89488095Y-32169104D01*
X89488095Y-32169104D02*
X89440476Y-32073866D01*
X89440476Y-32073866D02*
X89392857Y-32026247D01*
X89392857Y-32026247D02*
X89297619Y-31978628D01*
X89297619Y-31978628D02*
X89107143Y-31931009D01*
X89107143Y-31931009D02*
X89011905Y-31883390D01*
X89011905Y-31883390D02*
X88964286Y-31835771D01*
X88964286Y-31835771D02*
X88916667Y-31740533D01*
X88916667Y-31740533D02*
X88916667Y-31645295D01*
X88916667Y-31645295D02*
X88964286Y-31550057D01*
X88964286Y-31550057D02*
X89011905Y-31502438D01*
X89011905Y-31502438D02*
X89107143Y-31454819D01*
X89107143Y-31454819D02*
X89345238Y-31454819D01*
X89345238Y-31454819D02*
X89488095Y-31502438D01*
X89821429Y-31454819D02*
X90059524Y-32454819D01*
X90059524Y-32454819D02*
X90250000Y-31740533D01*
X90250000Y-31740533D02*
X90440476Y-32454819D01*
X90440476Y-32454819D02*
X90678572Y-31454819D01*
X91488095Y-31454819D02*
X91297619Y-31454819D01*
X91297619Y-31454819D02*
X91202381Y-31502438D01*
X91202381Y-31502438D02*
X91154762Y-31550057D01*
X91154762Y-31550057D02*
X91059524Y-31692914D01*
X91059524Y-31692914D02*
X91011905Y-31883390D01*
X91011905Y-31883390D02*
X91011905Y-32264342D01*
X91011905Y-32264342D02*
X91059524Y-32359580D01*
X91059524Y-32359580D02*
X91107143Y-32407200D01*
X91107143Y-32407200D02*
X91202381Y-32454819D01*
X91202381Y-32454819D02*
X91392857Y-32454819D01*
X91392857Y-32454819D02*
X91488095Y-32407200D01*
X91488095Y-32407200D02*
X91535714Y-32359580D01*
X91535714Y-32359580D02*
X91583333Y-32264342D01*
X91583333Y-32264342D02*
X91583333Y-32026247D01*
X91583333Y-32026247D02*
X91535714Y-31931009D01*
X91535714Y-31931009D02*
X91488095Y-31883390D01*
X91488095Y-31883390D02*
X91392857Y-31835771D01*
X91392857Y-31835771D02*
X91202381Y-31835771D01*
X91202381Y-31835771D02*
X91107143Y-31883390D01*
X91107143Y-31883390D02*
X91059524Y-31931009D01*
X91059524Y-31931009D02*
X91011905Y-32026247D01*
X71666666Y-3074819D02*
X71666666Y-3789104D01*
X71666666Y-3789104D02*
X71619047Y-3931961D01*
X71619047Y-3931961D02*
X71523809Y-4027200D01*
X71523809Y-4027200D02*
X71380952Y-4074819D01*
X71380952Y-4074819D02*
X71285714Y-4074819D01*
X72571428Y-3074819D02*
X72380952Y-3074819D01*
X72380952Y-3074819D02*
X72285714Y-3122438D01*
X72285714Y-3122438D02*
X72238095Y-3170057D01*
X72238095Y-3170057D02*
X72142857Y-3312914D01*
X72142857Y-3312914D02*
X72095238Y-3503390D01*
X72095238Y-3503390D02*
X72095238Y-3884342D01*
X72095238Y-3884342D02*
X72142857Y-3979580D01*
X72142857Y-3979580D02*
X72190476Y-4027200D01*
X72190476Y-4027200D02*
X72285714Y-4074819D01*
X72285714Y-4074819D02*
X72476190Y-4074819D01*
X72476190Y-4074819D02*
X72571428Y-4027200D01*
X72571428Y-4027200D02*
X72619047Y-3979580D01*
X72619047Y-3979580D02*
X72666666Y-3884342D01*
X72666666Y-3884342D02*
X72666666Y-3646247D01*
X72666666Y-3646247D02*
X72619047Y-3551009D01*
X72619047Y-3551009D02*
X72571428Y-3503390D01*
X72571428Y-3503390D02*
X72476190Y-3455771D01*
X72476190Y-3455771D02*
X72285714Y-3455771D01*
X72285714Y-3455771D02*
X72190476Y-3503390D01*
X72190476Y-3503390D02*
X72142857Y-3551009D01*
X72142857Y-3551009D02*
X72095238Y-3646247D01*
%TO.C,R8*%
D11*
X23772936Y-43265000D02*
X24227064Y-43265000D01*
X23772936Y-44735000D02*
X24227064Y-44735000D01*
%TO.C,R3*%
X87772936Y-7265000D02*
X88227064Y-7265000D01*
X87772936Y-8735000D02*
X88227064Y-8735000D01*
%TO.C,R17*%
X29772936Y-61265000D02*
X30227064Y-61265000D01*
X29772936Y-62735000D02*
X30227064Y-62735000D01*
%TO.C,R15*%
X29772936Y-49265000D02*
X30227064Y-49265000D01*
X29772936Y-50735000D02*
X30227064Y-50735000D01*
%TO.C,U4*%
X12150000Y-66590000D02*
X15910000Y-66590000D01*
X12150000Y-73410000D02*
X15910000Y-73410000D01*
X15910000Y-66590000D02*
X15910000Y-67850000D01*
X15910000Y-73410000D02*
X15910000Y-72150000D01*
X10870000Y-66690000D02*
X10630000Y-66360000D01*
X11110000Y-66360000D01*
X10870000Y-66690000D01*
G36*
X10870000Y-66690000D02*
G01*
X10630000Y-66360000D01*
X11110000Y-66360000D01*
X10870000Y-66690000D01*
G37*
%TO.C,C1*%
X23738748Y-67265000D02*
X24261252Y-67265000D01*
X23738748Y-68735000D02*
X24261252Y-68735000D01*
%TO.C,SW12*%
X64750000Y-59500000D02*
X64750000Y-61000000D01*
X66000000Y-63500000D02*
X70500000Y-63500000D01*
X70500000Y-57000000D02*
X66000000Y-57000000D01*
X71750000Y-61000000D02*
X71750000Y-59500000D01*
%TO.C,SW11*%
X53750000Y-59500000D02*
X53750000Y-61000000D01*
X55000000Y-63500000D02*
X59500000Y-63500000D01*
X59500000Y-57000000D02*
X55000000Y-57000000D01*
X60750000Y-61000000D02*
X60750000Y-59500000D01*
%TO.C,R2*%
X35772936Y-33265000D02*
X36227064Y-33265000D01*
X35772936Y-34735000D02*
X36227064Y-34735000D01*
%TO.C,R4*%
X87772936Y-12265000D02*
X88227064Y-12265000D01*
X87772936Y-13735000D02*
X88227064Y-13735000D01*
%TO.C,SW8*%
X64750000Y-47500000D02*
X64750000Y-49000000D01*
X66000000Y-51500000D02*
X70500000Y-51500000D01*
X70500000Y-45000000D02*
X66000000Y-45000000D01*
X71750000Y-49000000D02*
X71750000Y-47500000D01*
%TO.C,R7*%
X23772936Y-37265000D02*
X24227064Y-37265000D01*
X23772936Y-38735000D02*
X24227064Y-38735000D01*
%TO.C,SW13*%
X75750000Y-59500000D02*
X75750000Y-61000000D01*
X77000000Y-63500000D02*
X81500000Y-63500000D01*
X81500000Y-57000000D02*
X77000000Y-57000000D01*
X82750000Y-61000000D02*
X82750000Y-59500000D01*
%TO.C,U3*%
X9940000Y-30940000D02*
X14060000Y-30940000D01*
X9940000Y-30995000D02*
X9940000Y-30940000D01*
X9940000Y-41060000D02*
X9940000Y-41005000D01*
X14060000Y-30940000D02*
X14060000Y-30995000D01*
X14060000Y-41005000D02*
X14060000Y-41060000D01*
X14060000Y-41060000D02*
X9940000Y-41060000D01*
X9400000Y-30990000D02*
X9160000Y-30660000D01*
X9640000Y-30660000D01*
X9400000Y-30990000D01*
G36*
X9400000Y-30990000D02*
G01*
X9160000Y-30660000D01*
X9640000Y-30660000D01*
X9400000Y-30990000D01*
G37*
%TO.C,C6*%
X35738748Y-45265000D02*
X36261252Y-45265000D01*
X35738748Y-46735000D02*
X36261252Y-46735000D01*
%TO.C,U1*%
X16800000Y-100000D02*
X16800000Y-6300000D01*
X16800000Y-100000D02*
X35200000Y-100000D01*
X16800000Y-24950000D02*
X16800000Y-25950000D01*
X16800000Y-25950000D02*
X18300000Y-25950000D01*
X35200000Y-100000D02*
X35200000Y-6300000D01*
X35200000Y-25950000D02*
X33700000Y-25950000D01*
X35200000Y-25950000D02*
X35200000Y-24950000D01*
X16800000Y-6975000D02*
X16300000Y-6975000D01*
X16800000Y-6475000D01*
X16800000Y-6975000D01*
G36*
X16800000Y-6975000D02*
G01*
X16300000Y-6975000D01*
X16800000Y-6475000D01*
X16800000Y-6975000D01*
G37*
%TO.C,U2*%
X9940000Y-44940000D02*
X14060000Y-44940000D01*
X9940000Y-44995000D02*
X9940000Y-44940000D01*
X9940000Y-55060000D02*
X9940000Y-55005000D01*
X14060000Y-44940000D02*
X14060000Y-44995000D01*
X14060000Y-55005000D02*
X14060000Y-55060000D01*
X14060000Y-55060000D02*
X9940000Y-55060000D01*
X9400000Y-44990000D02*
X9160000Y-44660000D01*
X9640000Y-44660000D01*
X9400000Y-44990000D01*
G36*
X9400000Y-44990000D02*
G01*
X9160000Y-44660000D01*
X9640000Y-44660000D01*
X9400000Y-44990000D01*
G37*
%TO.C,R1*%
X35772936Y-29265000D02*
X36227064Y-29265000D01*
X35772936Y-30735000D02*
X36227064Y-30735000D01*
%TO.C,R12*%
X29772936Y-31265000D02*
X30227064Y-31265000D01*
X29772936Y-32735000D02*
X30227064Y-32735000D01*
%TO.C,SW3*%
X53750000Y-35500000D02*
X53750000Y-37000000D01*
X55000000Y-39500000D02*
X59500000Y-39500000D01*
X59500000Y-33000000D02*
X55000000Y-33000000D01*
X60750000Y-37000000D02*
X60750000Y-35500000D01*
%TO.C,D1*%
X59640000Y-69000000D02*
X59640000Y-71000000D01*
X59640000Y-69000000D02*
X63650000Y-69000000D01*
X59640000Y-71000000D02*
X63650000Y-71000000D01*
%TO.C,C3*%
X29738748Y-67265000D02*
X30261252Y-67265000D01*
X29738748Y-68735000D02*
X30261252Y-68735000D01*
%TO.C,J4*%
X58620000Y-4620000D02*
X60000000Y-4620000D01*
X58620000Y-6000000D02*
X58620000Y-4620000D01*
X58620000Y-7270000D02*
X58620000Y-20080000D01*
X58620000Y-7270000D02*
X61380000Y-7270000D01*
X58620000Y-20080000D02*
X61380000Y-20080000D01*
X61380000Y-7270000D02*
X61380000Y-20080000D01*
%TO.C,R9*%
X23772936Y-49265000D02*
X24227064Y-49265000D01*
X23772936Y-50735000D02*
X24227064Y-50735000D01*
%TO.C,C2*%
X23738748Y-71265000D02*
X24261252Y-71265000D01*
X23738748Y-72735000D02*
X24261252Y-72735000D01*
%TO.C,R13*%
X29772936Y-37265000D02*
X30227064Y-37265000D01*
X29772936Y-38735000D02*
X30227064Y-38735000D01*
%TO.C,R16*%
X29772936Y-55265000D02*
X30227064Y-55265000D01*
X29772936Y-56735000D02*
X30227064Y-56735000D01*
%TO.C,SW7*%
X53750000Y-47500000D02*
X53750000Y-49000000D01*
X55000000Y-51500000D02*
X59500000Y-51500000D01*
X59500000Y-45000000D02*
X55000000Y-45000000D01*
X60750000Y-49000000D02*
X60750000Y-47500000D01*
%TO.C,J1*%
X2620000Y-68620000D02*
X4000000Y-68620000D01*
X2620000Y-70000000D02*
X2620000Y-68620000D01*
X2620000Y-71270000D02*
X2620000Y-73920000D01*
X2620000Y-71270000D02*
X5380000Y-71270000D01*
X2620000Y-73920000D02*
X5380000Y-73920000D01*
X5380000Y-71270000D02*
X5380000Y-73920000D01*
%TO.C,R5*%
X53772936Y-74265000D02*
X54227064Y-74265000D01*
X53772936Y-75735000D02*
X54227064Y-75735000D01*
%TO.C,R11*%
X23772936Y-61265000D02*
X24227064Y-61265000D01*
X23772936Y-62735000D02*
X24227064Y-62735000D01*
%TO.C,SW14*%
X86750000Y-59500000D02*
X86750000Y-61000000D01*
X88000000Y-63500000D02*
X92500000Y-63500000D01*
X92500000Y-57000000D02*
X88000000Y-57000000D01*
X93750000Y-61000000D02*
X93750000Y-59500000D01*
%TO.C,BZ1*%
X38100000Y-73499999D02*
G75*
G02*
X38100000Y-70500000I6400000J1499999D01*
G01*
X50730000Y-72000000D02*
G75*
G02*
X38270000Y-72000000I-6230000J0D01*
G01*
X38270000Y-72000000D02*
G75*
G02*
X50730000Y-72000000I6230000J0D01*
G01*
%TO.C,J7*%
X76620000Y-4620000D02*
X78000000Y-4620000D01*
X76620000Y-6000000D02*
X76620000Y-4620000D01*
X76620000Y-7270000D02*
X76620000Y-15000000D01*
X76620000Y-7270000D02*
X79380000Y-7270000D01*
X76620000Y-15000000D02*
X79380000Y-15000000D01*
X79380000Y-7270000D02*
X79380000Y-15000000D01*
%TO.C,SW9*%
X75750000Y-47500000D02*
X75750000Y-49000000D01*
X77000000Y-51500000D02*
X81500000Y-51500000D01*
X81500000Y-45000000D02*
X77000000Y-45000000D01*
X82750000Y-49000000D02*
X82750000Y-47500000D01*
%TO.C,C4*%
X35738748Y-37265000D02*
X36261252Y-37265000D01*
X35738748Y-38735000D02*
X36261252Y-38735000D01*
%TO.C,SW4*%
X64750000Y-35500000D02*
X64750000Y-37000000D01*
X66000000Y-39500000D02*
X70500000Y-39500000D01*
X70500000Y-33000000D02*
X66000000Y-33000000D01*
X71750000Y-37000000D02*
X71750000Y-35500000D01*
%TO.C,SW10*%
X86750000Y-47500000D02*
X86750000Y-49000000D01*
X88000000Y-51500000D02*
X92500000Y-51500000D01*
X92500000Y-45000000D02*
X88000000Y-45000000D01*
X93750000Y-49000000D02*
X93750000Y-47500000D01*
%TO.C,C7*%
X17265000Y-36261252D02*
X17265000Y-35738748D01*
X18735000Y-36261252D02*
X18735000Y-35738748D01*
%TO.C,SW5*%
X75750000Y-35500000D02*
X75750000Y-37000000D01*
X77000000Y-39500000D02*
X81500000Y-39500000D01*
X81500000Y-33000000D02*
X77000000Y-33000000D01*
X82750000Y-37000000D02*
X82750000Y-35500000D01*
%TO.C,R14*%
X29772936Y-43265000D02*
X30227064Y-43265000D01*
X29772936Y-44735000D02*
X30227064Y-44735000D01*
%TO.C,SW1*%
X42750000Y-31500000D02*
X42750000Y-33000000D01*
X44000000Y-35500000D02*
X48500000Y-35500000D01*
X48500000Y-29000000D02*
X44000000Y-29000000D01*
X49750000Y-33000000D02*
X49750000Y-31500000D01*
%TO.C,SW2*%
X42750000Y-43500000D02*
X42750000Y-45000000D01*
X44000000Y-47500000D02*
X48500000Y-47500000D01*
X48500000Y-41000000D02*
X44000000Y-41000000D01*
X49750000Y-45000000D02*
X49750000Y-43500000D01*
%TO.C,J3*%
X52620000Y-4620000D02*
X54000000Y-4620000D01*
X52620000Y-6000000D02*
X52620000Y-4620000D01*
X52620000Y-7270000D02*
X52620000Y-25160000D01*
X52620000Y-7270000D02*
X55380000Y-7270000D01*
X52620000Y-25160000D02*
X55380000Y-25160000D01*
X55380000Y-7270000D02*
X55380000Y-25160000D01*
%TO.C,J2*%
X2620000Y-48620000D02*
X4000000Y-48620000D01*
X2620000Y-50000000D02*
X2620000Y-48620000D01*
X2620000Y-51270000D02*
X2620000Y-64080000D01*
X2620000Y-51270000D02*
X5380000Y-51270000D01*
X2620000Y-64080000D02*
X5380000Y-64080000D01*
X5380000Y-51270000D02*
X5380000Y-64080000D01*
%TO.C,C8*%
X17265000Y-50261252D02*
X17265000Y-49738748D01*
X18735000Y-50261252D02*
X18735000Y-49738748D01*
%TO.C,Q1*%
X53240000Y-68440000D02*
X54760000Y-68440000D01*
X53240000Y-68490000D02*
X53240000Y-68440000D01*
X53240000Y-70390000D02*
X53240000Y-69610000D01*
X53240000Y-71560000D02*
X53240000Y-71510000D01*
X54760000Y-68440000D02*
X54760000Y-69440000D01*
X54760000Y-70560000D02*
X54760000Y-71560000D01*
X54760000Y-71560000D02*
X53240000Y-71560000D01*
X52700000Y-69620000D02*
X52940000Y-69950000D01*
X52460000Y-69950000D01*
X52700000Y-69620000D01*
G36*
X52940000Y-69950000D02*
G01*
X52460000Y-69950000D01*
X52700000Y-69620000D01*
X52940000Y-69950000D01*
G37*
%TO.C,R10*%
X23772936Y-55265000D02*
X24227064Y-55265000D01*
X23772936Y-56735000D02*
X24227064Y-56735000D01*
%TO.C,J5*%
X64620000Y-4620000D02*
X66000000Y-4620000D01*
X64620000Y-6000000D02*
X64620000Y-4620000D01*
X64620000Y-7270000D02*
X64620000Y-17540000D01*
X64620000Y-7270000D02*
X67380000Y-7270000D01*
X64620000Y-17540000D02*
X67380000Y-17540000D01*
X67380000Y-7270000D02*
X67380000Y-17540000D01*
%TO.C,C5*%
X35738748Y-41265000D02*
X36261252Y-41265000D01*
X35738748Y-42735000D02*
X36261252Y-42735000D01*
%TO.C,R6*%
X23772936Y-31265000D02*
X24227064Y-31265000D01*
X23772936Y-32735000D02*
X24227064Y-32735000D01*
%TO.C,SW6*%
X86750000Y-35500000D02*
X86750000Y-37000000D01*
X88000000Y-39500000D02*
X92500000Y-39500000D01*
X92500000Y-33000000D02*
X88000000Y-33000000D01*
X93750000Y-37000000D02*
X93750000Y-35500000D01*
%TO.C,J6*%
X70620000Y-4620000D02*
X72000000Y-4620000D01*
X70620000Y-6000000D02*
X70620000Y-4620000D01*
X70620000Y-7270000D02*
X70620000Y-12460000D01*
X70620000Y-7270000D02*
X73380000Y-7270000D01*
X70620000Y-12460000D02*
X73380000Y-12460000D01*
X73380000Y-7270000D02*
X73380000Y-12460000D01*
%TD*%
%LPC*%
D12*
%TO.C,R8*%
X23087500Y-44000000D03*
X24912500Y-44000000D03*
%TD*%
%TO.C,R3*%
X87087500Y-8000000D03*
X88912500Y-8000000D03*
%TD*%
%TO.C,R17*%
X29087500Y-62000000D03*
X30912500Y-62000000D03*
%TD*%
%TO.C,R15*%
X29087500Y-50000000D03*
X30912500Y-50000000D03*
%TD*%
D13*
%TO.C,U4*%
X10850000Y-67700000D03*
X10850000Y-70000000D03*
D14*
X17150000Y-70000000D03*
D13*
X10850000Y-72300000D03*
%TD*%
D15*
%TO.C,C1*%
X23050000Y-68000000D03*
X24950000Y-68000000D03*
%TD*%
D16*
%TO.C,SW12*%
X65000000Y-58000000D03*
X71500000Y-58000000D03*
X65000000Y-62500000D03*
X71500000Y-62500000D03*
%TD*%
%TO.C,SW11*%
X54000000Y-58000000D03*
X60500000Y-58000000D03*
X54000000Y-62500000D03*
X60500000Y-62500000D03*
%TD*%
D12*
%TO.C,R2*%
X35087500Y-34000000D03*
X36912500Y-34000000D03*
%TD*%
%TO.C,R4*%
X87087500Y-13000000D03*
X88912500Y-13000000D03*
%TD*%
D16*
%TO.C,SW8*%
X65000000Y-46000000D03*
X71500000Y-46000000D03*
X65000000Y-50500000D03*
X71500000Y-50500000D03*
%TD*%
D12*
%TO.C,R7*%
X23087500Y-38000000D03*
X24912500Y-38000000D03*
%TD*%
D16*
%TO.C,SW13*%
X76000000Y-58000000D03*
X82500000Y-58000000D03*
X76000000Y-62500000D03*
X82500000Y-62500000D03*
%TD*%
D17*
%TO.C,U3*%
X9525000Y-31555000D03*
X9525000Y-32825000D03*
X9525000Y-34095000D03*
X9525000Y-35365000D03*
X9525000Y-36635000D03*
X9525000Y-37905000D03*
X9525000Y-39175000D03*
X9525000Y-40445000D03*
X14475000Y-40445000D03*
X14475000Y-39175000D03*
X14475000Y-37905000D03*
X14475000Y-36635000D03*
X14475000Y-35365000D03*
X14475000Y-34095000D03*
X14475000Y-32825000D03*
X14475000Y-31555000D03*
%TD*%
D15*
%TO.C,C6*%
X35050000Y-46000000D03*
X36950000Y-46000000D03*
%TD*%
D18*
%TO.C,U1*%
X17250000Y-7740000D03*
X17250000Y-9010000D03*
X17250000Y-10280000D03*
X17250000Y-11550000D03*
X17250000Y-12820000D03*
X17250000Y-14090000D03*
X17250000Y-15360000D03*
X17250000Y-16630000D03*
X17250000Y-17900000D03*
X17250000Y-19170000D03*
X17250000Y-20440000D03*
X17250000Y-21710000D03*
X17250000Y-22980000D03*
X17250000Y-24250000D03*
D19*
X19015000Y-25500000D03*
X20285000Y-25500000D03*
X21555000Y-25500000D03*
X22825000Y-25500000D03*
X24095000Y-25500000D03*
X25365000Y-25500000D03*
X26635000Y-25500000D03*
X27905000Y-25500000D03*
X29175000Y-25500000D03*
X30445000Y-25500000D03*
X31715000Y-25500000D03*
X32985000Y-25500000D03*
D18*
X34750000Y-24250000D03*
X34750000Y-22980000D03*
X34750000Y-21710000D03*
X34750000Y-20440000D03*
X34750000Y-19170000D03*
X34750000Y-17900000D03*
X34750000Y-16630000D03*
X34750000Y-15360000D03*
X34750000Y-14090000D03*
X34750000Y-12820000D03*
X34750000Y-11550000D03*
X34750000Y-10280000D03*
X34750000Y-9010000D03*
X34750000Y-7740000D03*
D20*
X23100000Y-14760000D03*
X23100000Y-16160000D03*
X23800000Y-14060000D03*
X23800000Y-15460000D03*
X23800000Y-16860000D03*
X24500000Y-14760000D03*
D21*
X24500000Y-15460000D03*
D20*
X24500000Y-16160000D03*
X25200000Y-14060000D03*
X25200000Y-15460000D03*
X25200000Y-16860000D03*
X25900000Y-14760000D03*
X25900000Y-16160000D03*
%TD*%
D17*
%TO.C,U2*%
X9525000Y-45555000D03*
X9525000Y-46825000D03*
X9525000Y-48095000D03*
X9525000Y-49365000D03*
X9525000Y-50635000D03*
X9525000Y-51905000D03*
X9525000Y-53175000D03*
X9525000Y-54445000D03*
X14475000Y-54445000D03*
X14475000Y-53175000D03*
X14475000Y-51905000D03*
X14475000Y-50635000D03*
X14475000Y-49365000D03*
X14475000Y-48095000D03*
X14475000Y-46825000D03*
X14475000Y-45555000D03*
%TD*%
D12*
%TO.C,R1*%
X35087500Y-30000000D03*
X36912500Y-30000000D03*
%TD*%
%TO.C,R12*%
X29087500Y-32000000D03*
X30912500Y-32000000D03*
%TD*%
D16*
%TO.C,SW3*%
X54000000Y-34000000D03*
X60500000Y-34000000D03*
X54000000Y-38500000D03*
X60500000Y-38500000D03*
%TD*%
D22*
%TO.C,D1*%
X60350000Y-70000000D03*
X63650000Y-70000000D03*
%TD*%
D15*
%TO.C,C3*%
X29050000Y-68000000D03*
X30950000Y-68000000D03*
%TD*%
D23*
%TO.C,J4*%
X60000000Y-6000000D03*
D24*
X60000000Y-8540000D03*
X60000000Y-11080000D03*
X60000000Y-13620000D03*
X60000000Y-16160000D03*
X60000000Y-18700000D03*
%TD*%
D12*
%TO.C,R9*%
X23087500Y-50000000D03*
X24912500Y-50000000D03*
%TD*%
D15*
%TO.C,C2*%
X23050000Y-72000000D03*
X24950000Y-72000000D03*
%TD*%
D12*
%TO.C,R13*%
X29087500Y-38000000D03*
X30912500Y-38000000D03*
%TD*%
%TO.C,R16*%
X29087500Y-56000000D03*
X30912500Y-56000000D03*
%TD*%
D16*
%TO.C,SW7*%
X54000000Y-46000000D03*
X60500000Y-46000000D03*
X54000000Y-50500000D03*
X60500000Y-50500000D03*
%TD*%
D23*
%TO.C,J1*%
X4000000Y-70000000D03*
D24*
X4000000Y-72540000D03*
%TD*%
D12*
%TO.C,R5*%
X53087500Y-75000000D03*
X54912500Y-75000000D03*
%TD*%
%TO.C,R11*%
X23087500Y-62000000D03*
X24912500Y-62000000D03*
%TD*%
D16*
%TO.C,SW14*%
X87000000Y-58000000D03*
X93500000Y-58000000D03*
X87000000Y-62500000D03*
X93500000Y-62500000D03*
%TD*%
D25*
%TO.C,BZ1*%
X42000000Y-72000000D03*
D16*
X47000000Y-72000000D03*
%TD*%
D23*
%TO.C,J7*%
X78000000Y-6000000D03*
D24*
X78000000Y-8540000D03*
X78000000Y-11080000D03*
X78000000Y-13620000D03*
%TD*%
D16*
%TO.C,SW9*%
X76000000Y-46000000D03*
X82500000Y-46000000D03*
X76000000Y-50500000D03*
X82500000Y-50500000D03*
%TD*%
D15*
%TO.C,C4*%
X35050000Y-38000000D03*
X36950000Y-38000000D03*
%TD*%
D16*
%TO.C,SW4*%
X65000000Y-34000000D03*
X71500000Y-34000000D03*
X65000000Y-38500000D03*
X71500000Y-38500000D03*
%TD*%
%TO.C,SW10*%
X87000000Y-46000000D03*
X93500000Y-46000000D03*
X87000000Y-50500000D03*
X93500000Y-50500000D03*
%TD*%
D26*
%TO.C,C7*%
X18000000Y-36950000D03*
X18000000Y-35050000D03*
%TD*%
D16*
%TO.C,SW5*%
X76000000Y-34000000D03*
X82500000Y-34000000D03*
X76000000Y-38500000D03*
X82500000Y-38500000D03*
%TD*%
D12*
%TO.C,R14*%
X29087500Y-44000000D03*
X30912500Y-44000000D03*
%TD*%
D16*
%TO.C,SW1*%
X43000000Y-30000000D03*
X49500000Y-30000000D03*
X43000000Y-34500000D03*
X49500000Y-34500000D03*
%TD*%
%TO.C,SW2*%
X43000000Y-42000000D03*
X49500000Y-42000000D03*
X43000000Y-46500000D03*
X49500000Y-46500000D03*
%TD*%
D23*
%TO.C,J3*%
X54000000Y-6000000D03*
D24*
X54000000Y-8540000D03*
X54000000Y-11080000D03*
X54000000Y-13620000D03*
X54000000Y-16160000D03*
X54000000Y-18700000D03*
X54000000Y-21240000D03*
X54000000Y-23780000D03*
%TD*%
D23*
%TO.C,J2*%
X4000000Y-50000000D03*
D24*
X4000000Y-52540000D03*
X4000000Y-55080000D03*
X4000000Y-57620000D03*
X4000000Y-60160000D03*
X4000000Y-62700000D03*
%TD*%
D26*
%TO.C,C8*%
X18000000Y-50950000D03*
X18000000Y-49050000D03*
%TD*%
D27*
%TO.C,Q1*%
X53062500Y-69050000D03*
X53062500Y-70950000D03*
X54937500Y-70000000D03*
%TD*%
D12*
%TO.C,R10*%
X23087500Y-56000000D03*
X24912500Y-56000000D03*
%TD*%
D23*
%TO.C,J5*%
X66000000Y-6000000D03*
D24*
X66000000Y-8540000D03*
X66000000Y-11080000D03*
X66000000Y-13620000D03*
X66000000Y-16160000D03*
%TD*%
D15*
%TO.C,C5*%
X35050000Y-42000000D03*
X36950000Y-42000000D03*
%TD*%
D12*
%TO.C,R6*%
X23087500Y-32000000D03*
X24912500Y-32000000D03*
%TD*%
D16*
%TO.C,SW6*%
X87000000Y-34000000D03*
X93500000Y-34000000D03*
X87000000Y-38500000D03*
X93500000Y-38500000D03*
%TD*%
D23*
%TO.C,J6*%
X72000000Y-6000000D03*
D24*
X72000000Y-8540000D03*
X72000000Y-11080000D03*
%TD*%
%LPD*%
M02*
